
      <svg xmlns="http://www.w3.org/2000/svg" version="1.1" width="2000" height="1000" style="display: block;"><polygon stroke-linejoin="round" stroke-miterlimit="1" stroke-width="1" points="2225.077392578125,935.9803466796875 1966.8773803710938,1094.7877197265625 2095.516357421875,1085.0075073242188" style="fill:#551523;stroke:#551523;"></polygon><polygon stroke-linejoin="round" stroke-miterlimit="1" stroke-width="1" points="1936.6363525390625,953.6160888671875 1966.8773803710938,1094.7877197265625 2225.077392578125,935.9803466796875" style="fill:#571623;stroke:#571623;"></polygon><polygon stroke-linejoin="round" stroke-miterlimit="1" stroke-width="1" points="2282.22607421875,800.5289001464844 1936.6363525390625,953.6160888671875 2225.077392578125,935.9803466796875" style="fill:#4d1123;stroke:#4d1123;"></polygon><polygon stroke-linejoin="round" stroke-miterlimit="1" stroke-width="1" points="2046.4169921875,810.1614685058594 1936.6363525390625,953.6160888671875 2282.22607421875,800.5289001464844" style="fill:#661f23;stroke:#661f23;"></polygon><polygon stroke-linejoin="round" stroke-miterlimit="1" stroke-width="1" points="2291.193115234375,663.0876617431641 2046.4169921875,810.1614685058594 2282.22607421875,800.5289001464844" style="fill:#5d1923;stroke:#5d1923;"></polygon><polygon stroke-linejoin="round" stroke-miterlimit="1" stroke-width="1" points="1984.5116577148438,664.3104553222656 2046.4169921875,810.1614685058594 2291.193115234375,663.0876617431641" style="fill:#5b1923;stroke:#5b1923;"></polygon><polygon stroke-linejoin="round" stroke-miterlimit="1" stroke-width="1" points="2192.4161376953125,509.802698135376 1984.5116577148438,664.3104553222656 2291.193115234375,663.0876617431641" style="fill:#591723;stroke:#591723;"></polygon><polygon stroke-linejoin="round" stroke-miterlimit="1" stroke-width="1" points="1930.0499267578125,485.70171642303467 1984.5116577148438,664.3104553222656 2192.4161376953125,509.802698135376" style="fill:#5c1923;stroke:#5c1923;"></polygon><polygon stroke-linejoin="round" stroke-miterlimit="1" stroke-width="1" points="2082.7164306640625,335.2303466796875 1930.0499267578125,485.70171642303467 2192.4161376953125,509.802698135376" style="fill:#5c1923;stroke:#5c1923;"></polygon><polygon stroke-linejoin="round" stroke-miterlimit="1" stroke-width="1" points="2081.0081787109375,364.40577697753906 1930.0499267578125,485.70171642303467 2082.7164306640625,335.2303466796875" style="fill:#2e0023;stroke:#2e0023;"></polygon><polygon stroke-linejoin="round" stroke-miterlimit="1" stroke-width="1" points="2181.029052734375,191.9609375 2081.0081787109375,364.40577697753906 2082.7164306640625,335.2303466796875" style="fill:#2e0023;stroke:#2e0023;"></polygon><polygon stroke-linejoin="round" stroke-miterlimit="1" stroke-width="1" points="2148.2567138671875,187.98046875 2081.0081787109375,364.40577697753906 2181.029052734375,191.9609375" style="fill:#2e0023;stroke:#2e0023;"></polygon><polygon stroke-linejoin="round" stroke-miterlimit="1" stroke-width="1" points="2148.312255859375,35.254364013671875 2148.2567138671875,187.98046875 2181.029052734375,191.9609375" style="fill:#2e0023;stroke:#2e0023;"></polygon><polygon stroke-linejoin="round" stroke-miterlimit="1" stroke-width="1" points="2089.768310546875,43.61383056640625 2148.2567138671875,187.98046875 2148.312255859375,35.254364013671875" style="fill:#370523;stroke:#370523;"></polygon><polygon stroke-linejoin="round" stroke-miterlimit="1" stroke-width="1" points="2155.1168212890625,-102.47967529296875 2089.768310546875,43.61383056640625 2148.312255859375,35.254364013671875" style="fill:#390723;stroke:#390723;"></polygon><polygon stroke-linejoin="round" stroke-miterlimit="1" stroke-width="1" points="2067.4532470703125,-97.43548583984375 2089.768310546875,43.61383056640625 2155.1168212890625,-102.47967529296875" style="fill:#511323;stroke:#511323;"></polygon><polygon stroke-linejoin="round" stroke-miterlimit="1" stroke-width="1" points="1936.6363525390625,953.6160888671875 2019.8544311523438,1108.8162841796875 1966.8773803710938,1094.7877197265625" style="fill:#2e0023;stroke:#2e0023;"></polygon><polygon stroke-linejoin="round" stroke-miterlimit="1" stroke-width="1" points="1811.8546752929688,960.9569396972656 2019.8544311523438,1108.8162841796875 1936.6363525390625,953.6160888671875" style="fill:#621c23;stroke:#621c23;"></polygon><polygon stroke-linejoin="round" stroke-miterlimit="1" stroke-width="1" points="2046.4169921875,810.1614685058594 1811.8546752929688,960.9569396972656 1936.6363525390625,953.6160888671875" style="fill:#772823;stroke:#772823;"></polygon><polygon stroke-linejoin="round" stroke-miterlimit="1" stroke-width="1" points="1850.4776611328125,814.4246520996094 1811.8546752929688,960.9569396972656 2046.4169921875,810.1614685058594" style="fill:#3d0923;stroke:#3d0923;"></polygon><polygon stroke-linejoin="round" stroke-miterlimit="1" stroke-width="1" points="1984.5116577148438,664.3104553222656 1850.4776611328125,814.4246520996094 2046.4169921875,810.1614685058594" style="fill:#501323;stroke:#501323;"></polygon><polygon stroke-linejoin="round" stroke-miterlimit="1" stroke-width="1" points="2019.1385498046875,650.4862976074219 1850.4776611328125,814.4246520996094 1984.5116577148438,664.3104553222656" style="fill:#2e0023;stroke:#2e0023;"></polygon><polygon stroke-linejoin="round" stroke-miterlimit="1" stroke-width="1" points="1930.0499267578125,485.70171642303467 2019.1385498046875,650.4862976074219 1984.5116577148438,664.3104553222656" style="fill:#2e0023;stroke:#2e0023;"></polygon><polygon stroke-linejoin="round" stroke-miterlimit="1" stroke-width="1" points="1952.9960327148438,492.98436307907104 2019.1385498046875,650.4862976074219 1930.0499267578125,485.70171642303467" style="fill:#3a0723;stroke:#3a0723;"></polygon><polygon stroke-linejoin="round" stroke-miterlimit="1" stroke-width="1" points="2081.0081787109375,364.40577697753906 1952.9960327148438,492.98436307907104 1930.0499267578125,485.70171642303467" style="fill:#300223;stroke:#300223;"></polygon><polygon stroke-linejoin="round" stroke-miterlimit="1" stroke-width="1" points="2019.3555297851562,335.0479431152344 1952.9960327148438,492.98436307907104 2081.0081787109375,364.40577697753906" style="fill:#581723;stroke:#581723;"></polygon><polygon stroke-linejoin="round" stroke-miterlimit="1" stroke-width="1" points="2148.2567138671875,187.98046875 2019.3555297851562,335.0479431152344 2081.0081787109375,364.40577697753906" style="fill:#571623;stroke:#571623;"></polygon><polygon stroke-linejoin="round" stroke-miterlimit="1" stroke-width="1" points="1961.4761352539062,214.55029296875 2019.3555297851562,335.0479431152344 2148.2567138671875,187.98046875" style="fill:#5c1923;stroke:#5c1923;"></polygon><polygon stroke-linejoin="round" stroke-miterlimit="1" stroke-width="1" points="2089.768310546875,43.61383056640625 1961.4761352539062,214.55029296875 2148.2567138671875,187.98046875" style="fill:#5a1823;stroke:#5a1823;"></polygon><polygon stroke-linejoin="round" stroke-miterlimit="1" stroke-width="1" points="2019.8223266601562,42.3570556640625 1961.4761352539062,214.55029296875 2089.768310546875,43.61383056640625" style="fill:#591823;stroke:#591823;"></polygon><polygon stroke-linejoin="round" stroke-miterlimit="1" stroke-width="1" points="2067.4532470703125,-97.43548583984375 2019.8223266601562,42.3570556640625 2089.768310546875,43.61383056640625" style="fill:#521423;stroke:#521423;"></polygon><polygon stroke-linejoin="round" stroke-miterlimit="1" stroke-width="1" points="1858.3150024414062,-90.765380859375 2019.8223266601562,42.3570556640625 2067.4532470703125,-97.43548583984375" style="fill:#631d23;stroke:#631d23;"></polygon><polygon stroke-linejoin="round" stroke-miterlimit="1" stroke-width="1" points="1811.8546752929688,960.9569396972656 1856.9234008789062,1099.7415771484375 2019.8544311523438,1108.8162841796875" style="fill:#641d23;stroke:#641d23;"></polygon><polygon stroke-linejoin="round" stroke-miterlimit="1" stroke-width="1" points="1665.13916015625,956.1281127929688 1856.9234008789062,1099.7415771484375 1811.8546752929688,960.9569396972656" style="fill:#6b2123;stroke:#6b2123;"></polygon><polygon stroke-linejoin="round" stroke-miterlimit="1" stroke-width="1" points="1850.4776611328125,814.4246520996094 1665.13916015625,956.1281127929688 1811.8546752929688,960.9569396972656" style="fill:#521423;stroke:#521423;"></polygon><polygon stroke-linejoin="round" stroke-miterlimit="1" stroke-width="1" points="1634.260498046875,814.7951965332031 1665.13916015625,956.1281127929688 1850.4776611328125,814.4246520996094" style="fill:#511323;stroke:#511323;"></polygon><polygon stroke-linejoin="round" stroke-miterlimit="1" stroke-width="1" points="2019.1385498046875,650.4862976074219 1634.260498046875,814.7951965332031 1850.4776611328125,814.4246520996094" style="fill:#6b2123;stroke:#6b2123;"></polygon><polygon stroke-linejoin="round" stroke-miterlimit="1" stroke-width="1" points="1784.3235473632812,664.2520904541016 1634.260498046875,814.7951965332031 2019.1385498046875,650.4862976074219" style="fill:#5d1a23;stroke:#5d1a23;"></polygon><polygon stroke-linejoin="round" stroke-miterlimit="1" stroke-width="1" points="1952.9960327148438,492.98436307907104 1784.3235473632812,664.2520904541016 2019.1385498046875,650.4862976074219" style="fill:#5a1823;stroke:#5a1823;"></polygon><polygon stroke-linejoin="round" stroke-miterlimit="1" stroke-width="1" points="1665.7822265625,514.6689853668213 1784.3235473632812,664.2520904541016 1952.9960327148438,492.98436307907104" style="fill:#6f2323;stroke:#6f2323;"></polygon><polygon stroke-linejoin="round" stroke-miterlimit="1" stroke-width="1" points="2019.3555297851562,335.0479431152344 1665.7822265625,514.6689853668213 1952.9960327148438,492.98436307907104" style="fill:#651e23;stroke:#651e23;"></polygon><polygon stroke-linejoin="round" stroke-miterlimit="1" stroke-width="1" points="1842.4222412109375,353.1664733886719 1665.7822265625,514.6689853668213 2019.3555297851562,335.0479431152344" style="fill:#511323;stroke:#511323;"></polygon><polygon stroke-linejoin="round" stroke-miterlimit="1" stroke-width="1" points="1961.4761352539062,214.55029296875 1842.4222412109375,353.1664733886719 2019.3555297851562,335.0479431152344" style="fill:#511323;stroke:#511323;"></polygon><polygon stroke-linejoin="round" stroke-miterlimit="1" stroke-width="1" points="1651.6256713867188,211.2625732421875 1842.4222412109375,353.1664733886719 1961.4761352539062,214.55029296875" style="fill:#621c23;stroke:#621c23;"></polygon><polygon stroke-linejoin="round" stroke-miterlimit="1" stroke-width="1" points="2019.8223266601562,42.3570556640625 1651.6256713867188,211.2625732421875 1961.4761352539062,214.55029296875" style="fill:#601b23;stroke:#601b23;"></polygon><polygon stroke-linejoin="round" stroke-miterlimit="1" stroke-width="1" points="1764.7728271484375,44.2535400390625 1651.6256713867188,211.2625732421875 2019.8223266601562,42.3570556640625" style="fill:#661f23;stroke:#661f23;"></polygon><polygon stroke-linejoin="round" stroke-miterlimit="1" stroke-width="1" points="1858.3150024414062,-90.765380859375 1764.7728271484375,44.2535400390625 2019.8223266601562,42.3570556640625" style="fill:#5e1a23;stroke:#5e1a23;"></polygon><polygon stroke-linejoin="round" stroke-miterlimit="1" stroke-width="1" points="1672.896728515625,-92.80499267578125 1764.7728271484375,44.2535400390625 1858.3150024414062,-90.765380859375" style="fill:#541523;stroke:#541523;"></polygon><polygon stroke-linejoin="round" stroke-miterlimit="1" stroke-width="1" points="1665.13916015625,956.1281127929688 1573.85107421875,1085.0691528320312 1856.9234008789062,1099.7415771484375" style="fill:#6d2223;stroke:#6d2223;"></polygon><polygon stroke-linejoin="round" stroke-miterlimit="1" stroke-width="1" points="1507.4186401367188,939.7308959960938 1573.85107421875,1085.0691528320312 1665.13916015625,956.1281127929688" style="fill:#6e2323;stroke:#6e2323;"></polygon><polygon stroke-linejoin="round" stroke-miterlimit="1" stroke-width="1" points="1634.260498046875,814.7951965332031 1507.4186401367188,939.7308959960938 1665.13916015625,956.1281127929688" style="fill:#531423;stroke:#531423;"></polygon><polygon stroke-linejoin="round" stroke-miterlimit="1" stroke-width="1" points="1716.4957275390625,805.59716796875 1507.4186401367188,939.7308959960938 1634.260498046875,814.7951965332031" style="fill:#2e0023;stroke:#2e0023;"></polygon><polygon stroke-linejoin="round" stroke-miterlimit="1" stroke-width="1" points="1784.3235473632812,664.2520904541016 1716.4957275390625,805.59716796875 1634.260498046875,814.7951965332031" style="fill:#2e0023;stroke:#2e0023;"></polygon><polygon stroke-linejoin="round" stroke-miterlimit="1" stroke-width="1" points="1717.1510620117188,643.6572875976562 1716.4957275390625,805.59716796875 1784.3235473632812,664.2520904541016" style="fill:#7f2c23;stroke:#7f2c23;"></polygon><polygon stroke-linejoin="round" stroke-miterlimit="1" stroke-width="1" points="1665.7822265625,514.6689853668213 1717.1510620117188,643.6572875976562 1784.3235473632812,664.2520904541016" style="fill:#812d23;stroke:#812d23;"></polygon><polygon stroke-linejoin="round" stroke-miterlimit="1" stroke-width="1" points="1719.9810180664062,502.03240156173706 1717.1510620117188,643.6572875976562 1665.7822265625,514.6689853668213" style="fill:#2e0023;stroke:#2e0023;"></polygon><polygon stroke-linejoin="round" stroke-miterlimit="1" stroke-width="1" points="1842.4222412109375,353.1664733886719 1719.9810180664062,502.03240156173706 1665.7822265625,514.6689853668213" style="fill:#2e0023;stroke:#2e0023;"></polygon><polygon stroke-linejoin="round" stroke-miterlimit="1" stroke-width="1" points="1510.44775390625,349.1273193359375 1719.9810180664062,502.03240156173706 1842.4222412109375,353.1664733886719" style="fill:#812d23;stroke:#812d23;"></polygon><polygon stroke-linejoin="round" stroke-miterlimit="1" stroke-width="1" points="1651.6256713867188,211.2625732421875 1510.44775390625,349.1273193359375 1842.4222412109375,353.1664733886719" style="fill:#852f23;stroke:#852f23;"></polygon><polygon stroke-linejoin="round" stroke-miterlimit="1" stroke-width="1" points="1630.843017578125,186.09121704101562 1510.44775390625,349.1273193359375 1651.6256713867188,211.2625732421875" style="fill:#953823;stroke:#953823;"></polygon><polygon stroke-linejoin="round" stroke-miterlimit="1" stroke-width="1" points="1764.7728271484375,44.2535400390625 1630.843017578125,186.09121704101562 1651.6256713867188,211.2625732421875" style="fill:#6d2223;stroke:#6d2223;"></polygon><polygon stroke-linejoin="round" stroke-miterlimit="1" stroke-width="1" points="1603.8692626953125,36.8560791015625 1630.843017578125,186.09121704101562 1764.7728271484375,44.2535400390625" style="fill:#732523;stroke:#732523;"></polygon><polygon stroke-linejoin="round" stroke-miterlimit="1" stroke-width="1" points="1672.896728515625,-92.80499267578125 1603.8692626953125,36.8560791015625 1764.7728271484375,44.2535400390625" style="fill:#832e23;stroke:#832e23;"></polygon><polygon stroke-linejoin="round" stroke-miterlimit="1" stroke-width="1" points="1555.5428466796875,-100.5308837890625 1603.8692626953125,36.8560791015625 1672.896728515625,-92.80499267578125" style="fill:#8f3423;stroke:#8f3423;"></polygon><polygon stroke-linejoin="round" stroke-miterlimit="1" stroke-width="1" points="1507.4186401367188,939.7308959960938 1345.5058288574219,1109.9119262695312 1573.85107421875,1085.0691528320312" style="fill:#712423;stroke:#712423;"></polygon><polygon stroke-linejoin="round" stroke-miterlimit="1" stroke-width="1" points="1550.8927001953125,957.1663208007812 1345.5058288574219,1109.9119262695312 1507.4186401367188,939.7308959960938" style="fill:#2e0023;stroke:#2e0023;"></polygon><polygon stroke-linejoin="round" stroke-miterlimit="1" stroke-width="1" points="1716.4957275390625,805.59716796875 1550.8927001953125,957.1663208007812 1507.4186401367188,939.7308959960938" style="fill:#2e0023;stroke:#2e0023;"></polygon><polygon stroke-linejoin="round" stroke-miterlimit="1" stroke-width="1" points="1423.7894287109375,812.088623046875 1550.8927001953125,957.1663208007812 1716.4957275390625,805.59716796875" style="fill:#601b23;stroke:#601b23;"></polygon><polygon stroke-linejoin="round" stroke-miterlimit="1" stroke-width="1" points="1717.1510620117188,643.6572875976562 1423.7894287109375,812.088623046875 1716.4957275390625,805.59716796875" style="fill:#7f2c23;stroke:#7f2c23;"></polygon><polygon stroke-linejoin="round" stroke-miterlimit="1" stroke-width="1" points="1355.1029052734375,663.5086364746094 1423.7894287109375,812.088623046875 1717.1510620117188,643.6572875976562" style="fill:#873023;stroke:#873023;"></polygon><polygon stroke-linejoin="round" stroke-miterlimit="1" stroke-width="1" points="1719.9810180664062,502.03240156173706 1355.1029052734375,663.5086364746094 1717.1510620117188,643.6572875976562" style="fill:#782823;stroke:#782823;"></polygon><polygon stroke-linejoin="round" stroke-miterlimit="1" stroke-width="1" points="1548.7495727539062,512.0678224563599 1355.1029052734375,663.5086364746094 1719.9810180664062,502.03240156173706" style="fill:#8e3423;stroke:#8e3423;"></polygon><polygon stroke-linejoin="round" stroke-miterlimit="1" stroke-width="1" points="1510.44775390625,349.1273193359375 1548.7495727539062,512.0678224563599 1719.9810180664062,502.03240156173706" style="fill:#8b3223;stroke:#8b3223;"></polygon><polygon stroke-linejoin="round" stroke-miterlimit="1" stroke-width="1" points="1524.4219970703125,360.9725341796875 1548.7495727539062,512.0678224563599 1510.44775390625,349.1273193359375" style="fill:#2e0023;stroke:#2e0023;"></polygon><polygon stroke-linejoin="round" stroke-miterlimit="1" stroke-width="1" points="1630.843017578125,186.09121704101562 1524.4219970703125,360.9725341796875 1510.44775390625,349.1273193359375" style="fill:#2e0023;stroke:#2e0023;"></polygon><polygon stroke-linejoin="round" stroke-miterlimit="1" stroke-width="1" points="1547.3438110351562,214.89089965820312 1524.4219970703125,360.9725341796875 1630.843017578125,186.09121704101562" style="fill:#863023;stroke:#863023;"></polygon><polygon stroke-linejoin="round" stroke-miterlimit="1" stroke-width="1" points="1603.8692626953125,36.8560791015625 1547.3438110351562,214.89089965820312 1630.843017578125,186.09121704101562" style="fill:#7d2b23;stroke:#7d2b23;"></polygon><polygon stroke-linejoin="round" stroke-miterlimit="1" stroke-width="1" points="1569.9944458007812,59.146759033203125 1547.3438110351562,214.89089965820312 1603.8692626953125,36.8560791015625" style="fill:#2e0023;stroke:#2e0023;"></polygon><polygon stroke-linejoin="round" stroke-miterlimit="1" stroke-width="1" points="1555.5428466796875,-100.5308837890625 1569.9944458007812,59.146759033203125 1603.8692626953125,36.8560791015625" style="fill:#2e0023;stroke:#2e0023;"></polygon><polygon stroke-linejoin="round" stroke-miterlimit="1" stroke-width="1" points="1390.8682861328125,-113.564453125 1569.9944458007812,59.146759033203125 1555.5428466796875,-100.5308837890625" style="fill:#5b1923;stroke:#5b1923;"></polygon><polygon stroke-linejoin="round" stroke-miterlimit="1" stroke-width="1" points="1550.8927001953125,957.1663208007812 1370.2485046386719,1114.8385620117188 1345.5058288574219,1109.9119262695312" style="fill:#2e0023;stroke:#2e0023;"></polygon><polygon stroke-linejoin="round" stroke-miterlimit="1" stroke-width="1" points="1381.2453002929688,941.1822814941406 1370.2485046386719,1114.8385620117188 1550.8927001953125,957.1663208007812" style="fill:#521423;stroke:#521423;"></polygon><polygon stroke-linejoin="round" stroke-miterlimit="1" stroke-width="1" points="1423.7894287109375,812.088623046875 1381.2453002929688,941.1822814941406 1550.8927001953125,957.1663208007812" style="fill:#661e23;stroke:#661e23;"></polygon><polygon stroke-linejoin="round" stroke-miterlimit="1" stroke-width="1" points="1418.2892456054688,813.9297180175781 1381.2453002929688,941.1822814941406 1423.7894287109375,812.088623046875" style="fill:#c75223;stroke:#c75223;"></polygon><polygon stroke-linejoin="round" stroke-miterlimit="1" stroke-width="1" points="1355.1029052734375,663.5086364746094 1418.2892456054688,813.9297180175781 1423.7894287109375,812.088623046875" style="fill:#8f3423;stroke:#8f3423;"></polygon><polygon stroke-linejoin="round" stroke-miterlimit="1" stroke-width="1" points="1417.7682189941406,643.6512756347656 1418.2892456054688,813.9297180175781 1355.1029052734375,663.5086364746094" style="fill:#2e0023;stroke:#2e0023;"></polygon><polygon stroke-linejoin="round" stroke-miterlimit="1" stroke-width="1" points="1548.7495727539062,512.0678224563599 1417.7682189941406,643.6512756347656 1355.1029052734375,663.5086364746094" style="fill:#2e0023;stroke:#2e0023;"></polygon><polygon stroke-linejoin="round" stroke-miterlimit="1" stroke-width="1" points="1184.9898986816406,498.5675245523453 1417.7682189941406,643.6512756347656 1548.7495727539062,512.0678224563599" style="fill:#b14723;stroke:#b14723;"></polygon><polygon stroke-linejoin="round" stroke-miterlimit="1" stroke-width="1" points="1524.4219970703125,360.9725341796875 1184.9898986816406,498.5675245523453 1548.7495727539062,512.0678224563599" style="fill:#aa4323;stroke:#aa4323;"></polygon><polygon stroke-linejoin="round" stroke-miterlimit="1" stroke-width="1" points="1180.0679016113281,341.3041229248047 1184.9898986816406,498.5675245523453 1524.4219970703125,360.9725341796875" style="fill:#db5d23;stroke:#db5d23;"></polygon><polygon stroke-linejoin="round" stroke-miterlimit="1" stroke-width="1" points="1547.3438110351562,214.89089965820312 1180.0679016113281,341.3041229248047 1524.4219970703125,360.9725341796875" style="fill:#ac4423;stroke:#ac4423;"></polygon><polygon stroke-linejoin="round" stroke-miterlimit="1" stroke-width="1" points="1291.2207336425781,202.83938598632812 1180.0679016113281,341.3041229248047 1547.3438110351562,214.89089965820312" style="fill:#c35023;stroke:#c35023;"></polygon><polygon stroke-linejoin="round" stroke-miterlimit="1" stroke-width="1" points="1569.9944458007812,59.146759033203125 1291.2207336425781,202.83938598632812 1547.3438110351562,214.89089965820312" style="fill:#9b3b23;stroke:#9b3b23;"></polygon><polygon stroke-linejoin="round" stroke-miterlimit="1" stroke-width="1" points="1362.8456115722656,35.7218017578125 1291.2207336425781,202.83938598632812 1569.9944458007812,59.146759033203125" style="fill:#a23f23;stroke:#a23f23;"></polygon><polygon stroke-linejoin="round" stroke-miterlimit="1" stroke-width="1" points="1390.8682861328125,-113.564453125 1362.8456115722656,35.7218017578125 1569.9944458007812,59.146759033203125" style="fill:#7a2923;stroke:#7a2923;"></polygon><polygon stroke-linejoin="round" stroke-miterlimit="1" stroke-width="1" points="1324.9449157714844,-105.53997802734375 1362.8456115722656,35.7218017578125 1390.8682861328125,-113.564453125" style="fill:#883123;stroke:#883123;"></polygon><polygon stroke-linejoin="round" stroke-miterlimit="1" stroke-width="1" points="1381.2453002929688,941.1822814941406 1218.2335815429688,1095.5972900390625 1370.2485046386719,1114.8385620117188" style="fill:#4e1223;stroke:#4e1223;"></polygon><polygon stroke-linejoin="round" stroke-miterlimit="1" stroke-width="1" points="1030.2893142700195,935.0389404296875 1218.2335815429688,1095.5972900390625 1381.2453002929688,941.1822814941406" style="fill:#7c2a23;stroke:#7c2a23;"></polygon><polygon stroke-linejoin="round" stroke-miterlimit="1" stroke-width="1" points="1418.2892456054688,813.9297180175781 1030.2893142700195,935.0389404296875 1381.2453002929688,941.1822814941406" style="fill:#842e23;stroke:#842e23;"></polygon><polygon stroke-linejoin="round" stroke-miterlimit="1" stroke-width="1" points="1109.3969421386719,804.7859191894531 1030.2893142700195,935.0389404296875 1418.2892456054688,813.9297180175781" style="fill:#5d1a23;stroke:#5d1a23;"></polygon><polygon stroke-linejoin="round" stroke-miterlimit="1" stroke-width="1" points="1417.7682189941406,643.6512756347656 1109.3969421386719,804.7859191894531 1418.2892456054688,813.9297180175781" style="fill:#772823;stroke:#772823;"></polygon><polygon stroke-linejoin="round" stroke-miterlimit="1" stroke-width="1" points="1262.3669128417969,651.6770324707031 1109.3969421386719,804.7859191894531 1417.7682189941406,643.6512756347656" style="fill:#8f3423;stroke:#8f3423;"></polygon><polygon stroke-linejoin="round" stroke-miterlimit="1" stroke-width="1" points="1184.9898986816406,498.5675245523453 1262.3669128417969,651.6770324707031 1417.7682189941406,643.6512756347656" style="fill:#bc4c23;stroke:#bc4c23;"></polygon><polygon stroke-linejoin="round" stroke-miterlimit="1" stroke-width="1" points="1105.5799255371094,496.5201315879822 1262.3669128417969,651.6770324707031 1184.9898986816406,498.5675245523453" style="fill:#e26123;stroke:#e26123;"></polygon><polygon stroke-linejoin="round" stroke-miterlimit="1" stroke-width="1" points="1180.0679016113281,341.3041229248047 1105.5799255371094,496.5201315879822 1184.9898986816406,498.5675245523453" style="fill:#f56b23;stroke:#f56b23;"></polygon><polygon stroke-linejoin="round" stroke-miterlimit="1" stroke-width="1" points="1068.7236633300781,335.62672424316406 1105.5799255371094,496.5201315879822 1180.0679016113281,341.3041229248047" style="fill:#ff8223;stroke:#ff8223;"></polygon><polygon stroke-linejoin="round" stroke-miterlimit="1" stroke-width="1" points="1291.2207336425781,202.83938598632812 1068.7236633300781,335.62672424316406 1180.0679016113281,341.3041229248047" style="fill:#ff7b23;stroke:#ff7b23;"></polygon><polygon stroke-linejoin="round" stroke-miterlimit="1" stroke-width="1" points="1266.2367553710938,186.67391967773438 1068.7236633300781,335.62672424316406 1291.2207336425781,202.83938598632812" style="fill:#fe6f23;stroke:#fe6f23;"></polygon><polygon stroke-linejoin="round" stroke-miterlimit="1" stroke-width="1" points="1362.8456115722656,35.7218017578125 1266.2367553710938,186.67391967773438 1291.2207336425781,202.83938598632812" style="fill:#9d3c23;stroke:#9d3c23;"></polygon><polygon stroke-linejoin="round" stroke-miterlimit="1" stroke-width="1" points="1169.438949584961,61.688201904296875 1266.2367553710938,186.67391967773438 1362.8456115722656,35.7218017578125" style="fill:#aa4323;stroke:#aa4323;"></polygon><polygon stroke-linejoin="round" stroke-miterlimit="1" stroke-width="1" points="1324.9449157714844,-105.53997802734375 1169.438949584961,61.688201904296875 1362.8456115722656,35.7218017578125" style="fill:#852f23;stroke:#852f23;"></polygon><polygon stroke-linejoin="round" stroke-miterlimit="1" stroke-width="1" points="1048.2903137207031,-92.50018310546875 1169.438949584961,61.688201904296875 1324.9449157714844,-105.53997802734375" style="fill:#8a3223;stroke:#8a3223;"></polygon><polygon stroke-linejoin="round" stroke-miterlimit="1" stroke-width="1" points="1030.2893142700195,935.0389404296875 1062.4020156860352,1106.5162353515625 1218.2335815429688,1095.5972900390625" style="fill:#631d23;stroke:#631d23;"></polygon><polygon stroke-linejoin="round" stroke-miterlimit="1" stroke-width="1" points="1042.273754119873,941.9557189941406 1062.4020156860352,1106.5162353515625 1030.2893142700195,935.0389404296875" style="fill:#2e0023;stroke:#2e0023;"></polygon><polygon stroke-linejoin="round" stroke-miterlimit="1" stroke-width="1" points="1109.3969421386719,804.7859191894531 1042.273754119873,941.9557189941406 1030.2893142700195,935.0389404296875" style="fill:#2e0023;stroke:#2e0023;"></polygon><polygon stroke-linejoin="round" stroke-miterlimit="1" stroke-width="1" points="929.5346984863281,785.302490234375 1042.273754119873,941.9557189941406 1109.3969421386719,804.7859191894531" style="fill:#732623;stroke:#732623;"></polygon><polygon stroke-linejoin="round" stroke-miterlimit="1" stroke-width="1" points="1262.3669128417969,651.6770324707031 929.5346984863281,785.302490234375 1109.3969421386719,804.7859191894531" style="fill:#973823;stroke:#973823;"></polygon><polygon stroke-linejoin="round" stroke-miterlimit="1" stroke-width="1" points="1115.879165649414,661.9729309082031 929.5346984863281,785.302490234375 1262.3669128417969,651.6770324707031" style="fill:#7c2a23;stroke:#7c2a23;"></polygon><polygon stroke-linejoin="round" stroke-miterlimit="1" stroke-width="1" points="1105.5799255371094,496.5201315879822 1115.879165649414,661.9729309082031 1262.3669128417969,651.6770324707031" style="fill:#b34723;stroke:#b34723;"></polygon><polygon stroke-linejoin="round" stroke-miterlimit="1" stroke-width="1" points="915.0121002197266,492.04508686065674 1115.879165649414,661.9729309082031 1105.5799255371094,496.5201315879822" style="fill:#bb4c23;stroke:#bb4c23;"></polygon><polygon stroke-linejoin="round" stroke-miterlimit="1" stroke-width="1" points="1068.7236633300781,335.62672424316406 915.0121002197266,492.04508686065674 1105.5799255371094,496.5201315879822" style="fill:#e26123;stroke:#e26123;"></polygon><polygon stroke-linejoin="round" stroke-miterlimit="1" stroke-width="1" points="880.075080871582,361.0896301269531 915.0121002197266,492.04508686065674 1068.7236633300781,335.62672424316406" style="fill:#cf5723;stroke:#cf5723;"></polygon><polygon stroke-linejoin="round" stroke-miterlimit="1" stroke-width="1" points="1266.2367553710938,186.67391967773438 880.075080871582,361.0896301269531 1068.7236633300781,335.62672424316406" style="fill:#ff7923;stroke:#ff7923;"></polygon><polygon stroke-linejoin="round" stroke-miterlimit="1" stroke-width="1" points="894.8969573974609,185.0018310546875 880.075080871582,361.0896301269531 1266.2367553710938,186.67391967773438" style="fill:#e06023;stroke:#e06023;"></polygon><polygon stroke-linejoin="round" stroke-miterlimit="1" stroke-width="1" points="1169.438949584961,61.688201904296875 894.8969573974609,185.0018310546875 1266.2367553710938,186.67391967773438" style="fill:#c04f23;stroke:#c04f23;"></polygon><polygon stroke-linejoin="round" stroke-miterlimit="1" stroke-width="1" points="1111.724838256836,56.563629150390625 894.8969573974609,185.0018310546875 1169.438949584961,61.688201904296875" style="fill:#7e2b23;stroke:#7e2b23;"></polygon><polygon stroke-linejoin="round" stroke-miterlimit="1" stroke-width="1" points="1048.2903137207031,-92.50018310546875 1111.724838256836,56.563629150390625 1169.438949584961,61.688201904296875" style="fill:#ab4323;stroke:#ab4323;"></polygon><polygon stroke-linejoin="round" stroke-miterlimit="1" stroke-width="1" points="893.9105987548828,-94.7440185546875 1111.724838256836,56.563629150390625 1048.2903137207031,-92.50018310546875" style="fill:#933623;stroke:#933623;"></polygon><polygon stroke-linejoin="round" stroke-miterlimit="1" stroke-width="1" points="1042.273754119873,941.9557189941406 784.8554077148438,1097.13623046875 1062.4020156860352,1106.5162353515625" style="fill:#5f1b23;stroke:#5f1b23;"></polygon><polygon stroke-linejoin="round" stroke-miterlimit="1" stroke-width="1" points="935.6402053833008,951.0536499023438 784.8554077148438,1097.13623046875 1042.273754119873,941.9557189941406" style="fill:#842f23;stroke:#842f23;"></polygon><polygon stroke-linejoin="round" stroke-miterlimit="1" stroke-width="1" points="929.5346984863281,785.302490234375 935.6402053833008,951.0536499023438 1042.273754119873,941.9557189941406" style="fill:#6c2223;stroke:#6c2223;"></polygon><polygon stroke-linejoin="round" stroke-miterlimit="1" stroke-width="1" points="894.9394149780273,813.18408203125 935.6402053833008,951.0536499023438 929.5346984863281,785.302490234375" style="fill:#923623;stroke:#923623;"></polygon><polygon stroke-linejoin="round" stroke-miterlimit="1" stroke-width="1" points="1115.879165649414,661.9729309082031 894.9394149780273,813.18408203125 929.5346984863281,785.302490234375" style="fill:#2e0023;stroke:#2e0023;"></polygon><polygon stroke-linejoin="round" stroke-miterlimit="1" stroke-width="1" points="730.0001831054688,652.6579132080078 894.9394149780273,813.18408203125 1115.879165649414,661.9729309082031" style="fill:#862f23;stroke:#862f23;"></polygon><polygon stroke-linejoin="round" stroke-miterlimit="1" stroke-width="1" points="915.0121002197266,492.04508686065674 730.0001831054688,652.6579132080078 1115.879165649414,661.9729309082031" style="fill:#aa4223;stroke:#aa4223;"></polygon><polygon stroke-linejoin="round" stroke-miterlimit="1" stroke-width="1" points="957.9929351806641,507.53306007385254 730.0001831054688,652.6579132080078 915.0121002197266,492.04508686065674" style="fill:#2e0023;stroke:#2e0023;"></polygon><polygon stroke-linejoin="round" stroke-miterlimit="1" stroke-width="1" points="880.075080871582,361.0896301269531 957.9929351806641,507.53306007385254 915.0121002197266,492.04508686065674" style="fill:#2e0023;stroke:#2e0023;"></polygon><polygon stroke-linejoin="round" stroke-miterlimit="1" stroke-width="1" points="748.5285797119141,343.16925048828125 957.9929351806641,507.53306007385254 880.075080871582,361.0896301269531" style="fill:#b84a23;stroke:#b84a23;"></polygon><polygon stroke-linejoin="round" stroke-miterlimit="1" stroke-width="1" points="894.8969573974609,185.0018310546875 748.5285797119141,343.16925048828125 880.075080871582,361.0896301269531" style="fill:#ae4523;stroke:#ae4523;"></polygon><polygon stroke-linejoin="round" stroke-miterlimit="1" stroke-width="1" points="905.4703369140625,203.515869140625 748.5285797119141,343.16925048828125 894.8969573974609,185.0018310546875" style="fill:#2e0023;stroke:#2e0023;"></polygon><polygon stroke-linejoin="round" stroke-miterlimit="1" stroke-width="1" points="1111.724838256836,56.563629150390625 905.4703369140625,203.515869140625 894.8969573974609,185.0018310546875" style="fill:#2e0023;stroke:#2e0023;"></polygon><polygon stroke-linejoin="round" stroke-miterlimit="1" stroke-width="1" points="871.1717071533203,53.381317138671875 905.4703369140625,203.515869140625 1111.724838256836,56.563629150390625" style="fill:#9e3c23;stroke:#9e3c23;"></polygon><polygon stroke-linejoin="round" stroke-miterlimit="1" stroke-width="1" points="893.9105987548828,-94.7440185546875 871.1717071533203,53.381317138671875 1111.724838256836,56.563629150390625" style="fill:#9a3a23;stroke:#9a3a23;"></polygon><polygon stroke-linejoin="round" stroke-miterlimit="1" stroke-width="1" points="910.9870223999023,-85.17950439453125 871.1717071533203,53.381317138671875 893.9105987548828,-94.7440185546875" style="fill:#2e0023;stroke:#2e0023;"></polygon><polygon stroke-linejoin="round" stroke-miterlimit="1" stroke-width="1" points="935.6402053833008,951.0536499023438 672.1098022460938,1088.40478515625 784.8554077148438,1097.13623046875" style="fill:#7b2a23;stroke:#7b2a23;"></polygon><polygon stroke-linejoin="round" stroke-miterlimit="1" stroke-width="1" points="664.0438537597656,943.9559631347656 672.1098022460938,1088.40478515625 935.6402053833008,951.0536499023438" style="fill:#5e1a23;stroke:#5e1a23;"></polygon><polygon stroke-linejoin="round" stroke-miterlimit="1" stroke-width="1" points="894.9394149780273,813.18408203125 664.0438537597656,943.9559631347656 935.6402053833008,951.0536499023438" style="fill:#5a1823;stroke:#5a1823;"></polygon><polygon stroke-linejoin="round" stroke-miterlimit="1" stroke-width="1" points="690.8802185058594,787.6573181152344 664.0438537597656,943.9559631347656 894.9394149780273,813.18408203125" style="fill:#6e2323;stroke:#6e2323;"></polygon><polygon stroke-linejoin="round" stroke-miterlimit="1" stroke-width="1" points="730.0001831054688,652.6579132080078 690.8802185058594,787.6573181152344 894.9394149780273,813.18408203125" style="fill:#581723;stroke:#581723;"></polygon><polygon stroke-linejoin="round" stroke-miterlimit="1" stroke-width="1" points="656.10107421875,635.2864227294922 690.8802185058594,787.6573181152344 730.0001831054688,652.6579132080078" style="fill:#450d23;stroke:#450d23;"></polygon><polygon stroke-linejoin="round" stroke-miterlimit="1" stroke-width="1" points="957.9929351806641,507.53306007385254 656.10107421875,635.2864227294922 730.0001831054688,652.6579132080078" style="fill:#852f23;stroke:#852f23;"></polygon><polygon stroke-linejoin="round" stroke-miterlimit="1" stroke-width="1" points="773.32861328125,486.21185970306396 656.10107421875,635.2864227294922 957.9929351806641,507.53306007385254" style="fill:#852f23;stroke:#852f23;"></polygon><polygon stroke-linejoin="round" stroke-miterlimit="1" stroke-width="1" points="748.5285797119141,343.16925048828125 773.32861328125,486.21185970306396 957.9929351806641,507.53306007385254" style="fill:#893123;stroke:#893123;"></polygon><polygon stroke-linejoin="round" stroke-miterlimit="1" stroke-width="1" points="583.4878540039062,335.76234436035156 773.32861328125,486.21185970306396 748.5285797119141,343.16925048828125" style="fill:#712423;stroke:#712423;"></polygon><polygon stroke-linejoin="round" stroke-miterlimit="1" stroke-width="1" points="905.4703369140625,203.515869140625 583.4878540039062,335.76234436035156 748.5285797119141,343.16925048828125" style="fill:#792923;stroke:#792923;"></polygon><polygon stroke-linejoin="round" stroke-miterlimit="1" stroke-width="1" points="621.6218872070312,213.32733154296875 583.4878540039062,335.76234436035156 905.4703369140625,203.515869140625" style="fill:#7e2b23;stroke:#7e2b23;"></polygon><polygon stroke-linejoin="round" stroke-miterlimit="1" stroke-width="1" points="871.1717071533203,53.381317138671875 621.6218872070312,213.32733154296875 905.4703369140625,203.515869140625" style="fill:#852f23;stroke:#852f23;"></polygon><polygon stroke-linejoin="round" stroke-miterlimit="1" stroke-width="1" points="746.4310760498047,53.665618896484375 621.6218872070312,213.32733154296875 871.1717071533203,53.381317138671875" style="fill:#862f23;stroke:#862f23;"></polygon><polygon stroke-linejoin="round" stroke-miterlimit="1" stroke-width="1" points="910.9870223999023,-85.17950439453125 746.4310760498047,53.665618896484375 871.1717071533203,53.381317138671875" style="fill:#8a3123;stroke:#8a3123;"></polygon><polygon stroke-linejoin="round" stroke-miterlimit="1" stroke-width="1" points="609.6718139648438,-88.94189453125 746.4310760498047,53.665618896484375 910.9870223999023,-85.17950439453125" style="fill:#7a2923;stroke:#7a2923;"></polygon><polygon stroke-linejoin="round" stroke-miterlimit="1" stroke-width="1" points="664.0438537597656,943.9559631347656 454.49176025390625,1104.2862548828125 672.1098022460938,1088.40478515625" style="fill:#541523;stroke:#541523;"></polygon><polygon stroke-linejoin="round" stroke-miterlimit="1" stroke-width="1" points="666.658447265625,946.1583862304688 454.49176025390625,1104.2862548828125 664.0438537597656,943.9559631347656" style="fill:#2e0023;stroke:#2e0023;"></polygon><polygon stroke-linejoin="round" stroke-miterlimit="1" stroke-width="1" points="690.8802185058594,787.6573181152344 666.658447265625,946.1583862304688 664.0438537597656,943.9559631347656" style="fill:#2e0023;stroke:#2e0023;"></polygon><polygon stroke-linejoin="round" stroke-miterlimit="1" stroke-width="1" points="642.2825622558594,814.3748168945312 666.658447265625,946.1583862304688 690.8802185058594,787.6573181152344" style="fill:#993a23;stroke:#993a23;"></polygon><polygon stroke-linejoin="round" stroke-miterlimit="1" stroke-width="1" points="656.10107421875,635.2864227294922 642.2825622558594,814.3748168945312 690.8802185058594,787.6573181152344" style="fill:#aa4323;stroke:#aa4323;"></polygon><polygon stroke-linejoin="round" stroke-miterlimit="1" stroke-width="1" points="575.9867553710938,641.0801391601562 642.2825622558594,814.3748168945312 656.10107421875,635.2864227294922" style="fill:#983923;stroke:#983923;"></polygon><polygon stroke-linejoin="round" stroke-miterlimit="1" stroke-width="1" points="773.32861328125,486.21185970306396 575.9867553710938,641.0801391601562 656.10107421875,635.2864227294922" style="fill:#8a3223;stroke:#8a3223;"></polygon><polygon stroke-linejoin="round" stroke-miterlimit="1" stroke-width="1" points="447.63250732421875,504.3506979942322 575.9867553710938,641.0801391601562 773.32861328125,486.21185970306396" style="fill:#792923;stroke:#792923;"></polygon><polygon stroke-linejoin="round" stroke-miterlimit="1" stroke-width="1" points="583.4878540039062,335.76234436035156 447.63250732421875,504.3506979942322 773.32861328125,486.21185970306396" style="fill:#7d2b23;stroke:#7d2b23;"></polygon><polygon stroke-linejoin="round" stroke-miterlimit="1" stroke-width="1" points="431.6883544921875,336.5509490966797 447.63250732421875,504.3506979942322 583.4878540039062,335.76234436035156" style="fill:#6e2323;stroke:#6e2323;"></polygon><polygon stroke-linejoin="round" stroke-miterlimit="1" stroke-width="1" points="621.6218872070312,213.32733154296875 431.6883544921875,336.5509490966797 583.4878540039062,335.76234436035156" style="fill:#742623;stroke:#742623;"></polygon><polygon stroke-linejoin="round" stroke-miterlimit="1" stroke-width="1" points="430.26715087890625,214.31103515625 431.6883544921875,336.5509490966797 621.6218872070312,213.32733154296875" style="fill:#6e2323;stroke:#6e2323;"></polygon><polygon stroke-linejoin="round" stroke-miterlimit="1" stroke-width="1" points="746.4310760498047,53.665618896484375 430.26715087890625,214.31103515625 621.6218872070312,213.32733154296875" style="fill:#772723;stroke:#772723;"></polygon><polygon stroke-linejoin="round" stroke-miterlimit="1" stroke-width="1" points="430.59588623046875,36.715423583984375 430.26715087890625,214.31103515625 746.4310760498047,53.665618896484375" style="fill:#702423;stroke:#702423;"></polygon><polygon stroke-linejoin="round" stroke-miterlimit="1" stroke-width="1" points="609.6718139648438,-88.94189453125 430.59588623046875,36.715423583984375 746.4310760498047,53.665618896484375" style="fill:#702423;stroke:#702423;"></polygon><polygon stroke-linejoin="round" stroke-miterlimit="1" stroke-width="1" points="654.2408142089844,-105.6458740234375 430.59588623046875,36.715423583984375 609.6718139648438,-88.94189453125" style="fill:#2e0023;stroke:#2e0023;"></polygon><polygon stroke-linejoin="round" stroke-miterlimit="1" stroke-width="1" points="666.658447265625,946.1583862304688 509.4877014160156,1112.9270629882812 454.49176025390625,1104.2862548828125" style="fill:#2e0023;stroke:#2e0023;"></polygon><polygon stroke-linejoin="round" stroke-miterlimit="1" stroke-width="1" points="395.534423828125,964.7721557617188 509.4877014160156,1112.9270629882812 666.658447265625,946.1583862304688" style="fill:#5b1823;stroke:#5b1823;"></polygon><polygon stroke-linejoin="round" stroke-miterlimit="1" stroke-width="1" points="642.2825622558594,814.3748168945312 395.534423828125,964.7721557617188 666.658447265625,946.1583862304688" style="fill:#5b1923;stroke:#5b1923;"></polygon><polygon stroke-linejoin="round" stroke-miterlimit="1" stroke-width="1" points="470.00537109375,814.9788513183594 395.534423828125,964.7721557617188 642.2825622558594,814.3748168945312" style="fill:#631d23;stroke:#631d23;"></polygon><polygon stroke-linejoin="round" stroke-miterlimit="1" stroke-width="1" points="575.9867553710938,641.0801391601562 470.00537109375,814.9788513183594 642.2825622558594,814.3748168945312" style="fill:#521423;stroke:#521423;"></polygon><polygon stroke-linejoin="round" stroke-miterlimit="1" stroke-width="1" points="457.37982177734375,645.5542297363281 470.00537109375,814.9788513183594 575.9867553710938,641.0801391601562" style="fill:#5e1a23;stroke:#5e1a23;"></polygon><polygon stroke-linejoin="round" stroke-miterlimit="1" stroke-width="1" points="447.63250732421875,504.3506979942322 457.37982177734375,645.5542297363281 575.9867553710938,641.0801391601562" style="fill:#6c2123;stroke:#6c2123;"></polygon><polygon stroke-linejoin="round" stroke-miterlimit="1" stroke-width="1" points="518.3087158203125,495.2180366516113 457.37982177734375,645.5542297363281 447.63250732421875,504.3506979942322" style="fill:#2e0023;stroke:#2e0023;"></polygon><polygon stroke-linejoin="round" stroke-miterlimit="1" stroke-width="1" points="431.6883544921875,336.5509490966797 518.3087158203125,495.2180366516113 447.63250732421875,504.3506979942322" style="fill:#2e0023;stroke:#2e0023;"></polygon><polygon stroke-linejoin="round" stroke-miterlimit="1" stroke-width="1" points="372.60009765625,345.9218444824219 518.3087158203125,495.2180366516113 431.6883544921875,336.5509490966797" style="fill:#692023;stroke:#692023;"></polygon><polygon stroke-linejoin="round" stroke-miterlimit="1" stroke-width="1" points="430.26715087890625,214.31103515625 372.60009765625,345.9218444824219 431.6883544921875,336.5509490966797" style="fill:#692023;stroke:#692023;"></polygon><polygon stroke-linejoin="round" stroke-miterlimit="1" stroke-width="1" points="509.4520263671875,202.2122802734375 372.60009765625,345.9218444824219 430.26715087890625,214.31103515625" style="fill:#2e0023;stroke:#2e0023;"></polygon><polygon stroke-linejoin="round" stroke-miterlimit="1" stroke-width="1" points="430.59588623046875,36.715423583984375 509.4520263671875,202.2122802734375 430.26715087890625,214.31103515625" style="fill:#2e0023;stroke:#2e0023;"></polygon><polygon stroke-linejoin="round" stroke-miterlimit="1" stroke-width="1" points="490.8606262207031,47.898956298828125 509.4520263671875,202.2122802734375 430.59588623046875,36.715423583984375" style="fill:#2e0023;stroke:#2e0023;"></polygon><polygon stroke-linejoin="round" stroke-miterlimit="1" stroke-width="1" points="654.2408142089844,-105.6458740234375 490.8606262207031,47.898956298828125 430.59588623046875,36.715423583984375" style="fill:#2e0023;stroke:#2e0023;"></polygon><polygon stroke-linejoin="round" stroke-miterlimit="1" stroke-width="1" points="340.0369873046875,-85.92333984375 490.8606262207031,47.898956298828125 654.2408142089844,-105.6458740234375" style="fill:#5d1a23;stroke:#5d1a23;"></polygon><polygon stroke-linejoin="round" stroke-miterlimit="1" stroke-width="1" points="395.534423828125,964.7721557617188 300.83319091796875,1091.7872924804688 509.4877014160156,1112.9270629882812" style="fill:#4e1223;stroke:#4e1223;"></polygon><polygon stroke-linejoin="round" stroke-miterlimit="1" stroke-width="1" points="303.2445068359375,936.4194641113281 300.83319091796875,1091.7872924804688 395.534423828125,964.7721557617188" style="fill:#4b1023;stroke:#4b1023;"></polygon><polygon stroke-linejoin="round" stroke-miterlimit="1" stroke-width="1" points="470.00537109375,814.9788513183594 303.2445068359375,936.4194641113281 395.534423828125,964.7721557617188" style="fill:#661e23;stroke:#661e23;"></polygon><polygon stroke-linejoin="round" stroke-miterlimit="1" stroke-width="1" points="203.2921142578125,786.8004760742188 303.2445068359375,936.4194641113281 470.00537109375,814.9788513183594" style="fill:#651e23;stroke:#651e23;"></polygon><polygon stroke-linejoin="round" stroke-miterlimit="1" stroke-width="1" points="457.37982177734375,645.5542297363281 203.2921142578125,786.8004760742188 470.00537109375,814.9788513183594" style="fill:#571623;stroke:#571623;"></polygon><polygon stroke-linejoin="round" stroke-miterlimit="1" stroke-width="1" points="241.149169921875,635.9715576171875 203.2921142578125,786.8004760742188 457.37982177734375,645.5542297363281" style="fill:#511323;stroke:#511323;"></polygon><polygon stroke-linejoin="round" stroke-miterlimit="1" stroke-width="1" points="518.3087158203125,495.2180366516113 241.149169921875,635.9715576171875 457.37982177734375,645.5542297363281" style="fill:#561623;stroke:#561623;"></polygon><polygon stroke-linejoin="round" stroke-miterlimit="1" stroke-width="1" points="304.9073486328125,488.4869556427002 241.149169921875,635.9715576171875 518.3087158203125,495.2180366516113" style="fill:#5c1923;stroke:#5c1923;"></polygon><polygon stroke-linejoin="round" stroke-miterlimit="1" stroke-width="1" points="372.60009765625,345.9218444824219 304.9073486328125,488.4869556427002 518.3087158203125,495.2180366516113" style="fill:#692023;stroke:#692023;"></polygon><polygon stroke-linejoin="round" stroke-miterlimit="1" stroke-width="1" points="134.76336669921875,337.27734375 304.9073486328125,488.4869556427002 372.60009765625,345.9218444824219" style="fill:#661f23;stroke:#661f23;"></polygon><polygon stroke-linejoin="round" stroke-miterlimit="1" stroke-width="1" points="509.4520263671875,202.2122802734375 134.76336669921875,337.27734375 372.60009765625,345.9218444824219" style="fill:#6a2123;stroke:#6a2123;"></polygon><polygon stroke-linejoin="round" stroke-miterlimit="1" stroke-width="1" points="134.60736083984375,187.24951171875 134.76336669921875,337.27734375 509.4520263671875,202.2122802734375" style="fill:#571723;stroke:#571723;"></polygon><polygon stroke-linejoin="round" stroke-miterlimit="1" stroke-width="1" points="490.8606262207031,47.898956298828125 134.60736083984375,187.24951171875 509.4520263671875,202.2122802734375" style="fill:#601b23;stroke:#601b23;"></polygon><polygon stroke-linejoin="round" stroke-miterlimit="1" stroke-width="1" points="181.2357177734375,46.478118896484375 134.60736083984375,187.24951171875 490.8606262207031,47.898956298828125" style="fill:#641e23;stroke:#641e23;"></polygon><polygon stroke-linejoin="round" stroke-miterlimit="1" stroke-width="1" points="340.0369873046875,-85.92333984375 181.2357177734375,46.478118896484375 490.8606262207031,47.898956298828125" style="fill:#581723;stroke:#581723;"></polygon><polygon stroke-linejoin="round" stroke-miterlimit="1" stroke-width="1" points="138.2794189453125,-92.31005859375 181.2357177734375,46.478118896484375 340.0369873046875,-85.92333984375" style="fill:#531523;stroke:#531523;"></polygon><polygon stroke-linejoin="round" stroke-miterlimit="1" stroke-width="1" points="303.2445068359375,936.4194641113281 211.4625244140625,1108.7771606445312 300.83319091796875,1091.7872924804688" style="fill:#3e0923;stroke:#3e0923;"></polygon><polygon stroke-linejoin="round" stroke-miterlimit="1" stroke-width="1" points="165.076904296875,953.4434509277344 211.4625244140625,1108.7771606445312 303.2445068359375,936.4194641113281" style="fill:#420b23;stroke:#420b23;"></polygon><polygon stroke-linejoin="round" stroke-miterlimit="1" stroke-width="1" points="203.2921142578125,786.8004760742188 165.076904296875,953.4434509277344 303.2445068359375,936.4194641113281" style="fill:#450d23;stroke:#450d23;"></polygon><polygon stroke-linejoin="round" stroke-miterlimit="1" stroke-width="1" points="155.174072265625,785.151611328125 165.076904296875,953.4434509277344 203.2921142578125,786.8004760742188" style="fill:#370623;stroke:#370623;"></polygon><polygon stroke-linejoin="round" stroke-miterlimit="1" stroke-width="1" points="241.149169921875,635.9715576171875 155.174072265625,785.151611328125 203.2921142578125,786.8004760742188" style="fill:#410b23;stroke:#410b23;"></polygon><polygon stroke-linejoin="round" stroke-miterlimit="1" stroke-width="1" points="190.41607666015625,651.427490234375 155.174072265625,785.151611328125 241.149169921875,635.9715576171875" style="fill:#591723;stroke:#591723;"></polygon><polygon stroke-linejoin="round" stroke-miterlimit="1" stroke-width="1" points="304.9073486328125,488.4869556427002 190.41607666015625,651.427490234375 241.149169921875,635.9715576171875" style="fill:#5c1923;stroke:#5c1923;"></polygon><polygon stroke-linejoin="round" stroke-miterlimit="1" stroke-width="1" points="161.61090087890625,512.715142250061 190.41607666015625,651.427490234375 304.9073486328125,488.4869556427002" style="fill:#450d23;stroke:#450d23;"></polygon><polygon stroke-linejoin="round" stroke-miterlimit="1" stroke-width="1" points="134.76336669921875,337.27734375 161.61090087890625,512.715142250061 304.9073486328125,488.4869556427002" style="fill:#450d23;stroke:#450d23;"></polygon><polygon stroke-linejoin="round" stroke-miterlimit="1" stroke-width="1" points="189.542724609375,355.2127990722656 161.61090087890625,512.715142250061 134.76336669921875,337.27734375" style="fill:#2e0023;stroke:#2e0023;"></polygon><polygon stroke-linejoin="round" stroke-miterlimit="1" stroke-width="1" points="134.60736083984375,187.24951171875 189.542724609375,355.2127990722656 134.76336669921875,337.27734375" style="fill:#2e0023;stroke:#2e0023;"></polygon><polygon stroke-linejoin="round" stroke-miterlimit="1" stroke-width="1" points="126.66864013671875,198.19158935546875 189.542724609375,355.2127990722656 134.60736083984375,187.24951171875" style="fill:#6c2123;stroke:#6c2123;"></polygon><polygon stroke-linejoin="round" stroke-miterlimit="1" stroke-width="1" points="181.2357177734375,46.478118896484375 126.66864013671875,198.19158935546875 134.60736083984375,187.24951171875" style="fill:#c04f23;stroke:#c04f23;"></polygon><polygon stroke-linejoin="round" stroke-miterlimit="1" stroke-width="1" points="90.90106201171875,64.80130004882812 126.66864013671875,198.19158935546875 181.2357177734375,46.478118896484375" style="fill:#551623;stroke:#551623;"></polygon><polygon stroke-linejoin="round" stroke-miterlimit="1" stroke-width="1" points="138.2794189453125,-92.31005859375 90.90106201171875,64.80130004882812 181.2357177734375,46.478118896484375" style="fill:#450d23;stroke:#450d23;"></polygon><polygon stroke-linejoin="round" stroke-miterlimit="1" stroke-width="1" points="218.084228515625,-113.538330078125 90.90106201171875,64.80130004882812 138.2794189453125,-92.31005859375" style="fill:#2e0023;stroke:#2e0023;"></polygon><polygon stroke-linejoin="round" stroke-miterlimit="1" stroke-width="1" points="165.076904296875,953.4434509277344 -62.523681640625,1110.5698852539062 211.4625244140625,1108.7771606445312" style="fill:#501323;stroke:#501323;"></polygon><polygon stroke-linejoin="round" stroke-miterlimit="1" stroke-width="1" points="65.3466796875,962.2215270996094 -62.523681640625,1110.5698852539062 165.076904296875,953.4434509277344" style="fill:#4f1223;stroke:#4f1223;"></polygon><polygon stroke-linejoin="round" stroke-miterlimit="1" stroke-width="1" points="155.174072265625,785.151611328125 65.3466796875,962.2215270996094 165.076904296875,953.4434509277344" style="fill:#4f1223;stroke:#4f1223;"></polygon><polygon stroke-linejoin="round" stroke-miterlimit="1" stroke-width="1" points="-9.72430419921875,788.4392395019531 65.3466796875,962.2215270996094 155.174072265625,785.151611328125" style="fill:#571623;stroke:#571623;"></polygon><polygon stroke-linejoin="round" stroke-miterlimit="1" stroke-width="1" points="190.41607666015625,651.427490234375 -9.72430419921875,788.4392395019531 155.174072265625,785.151611328125" style="fill:#5b1923;stroke:#5b1923;"></polygon><polygon stroke-linejoin="round" stroke-miterlimit="1" stroke-width="1" points="-55.746337890625,658.4159698486328 -9.72430419921875,788.4392395019531 190.41607666015625,651.427490234375" style="fill:#5d1a23;stroke:#5d1a23;"></polygon><polygon stroke-linejoin="round" stroke-miterlimit="1" stroke-width="1" points="161.61090087890625,512.715142250061 -55.746337890625,658.4159698486328 190.41607666015625,651.427490234375" style="fill:#641d23;stroke:#641d23;"></polygon><polygon stroke-linejoin="round" stroke-miterlimit="1" stroke-width="1" points="-166.6851806640625,511.5756311416626 -55.746337890625,658.4159698486328 161.61090087890625,512.715142250061" style="fill:#561623;stroke:#561623;"></polygon><polygon stroke-linejoin="round" stroke-miterlimit="1" stroke-width="1" points="189.542724609375,355.2127990722656 -166.6851806640625,511.5756311416626 161.61090087890625,512.715142250061" style="fill:#571623;stroke:#571623;"></polygon><polygon stroke-linejoin="round" stroke-miterlimit="1" stroke-width="1" points="-96.0205078125,342.31349182128906 -166.6851806640625,511.5756311416626 189.542724609375,355.2127990722656" style="fill:#5c1923;stroke:#5c1923;"></polygon><polygon stroke-linejoin="round" stroke-miterlimit="1" stroke-width="1" points="126.66864013671875,198.19158935546875 -96.0205078125,342.31349182128906 189.542724609375,355.2127990722656" style="fill:#621c23;stroke:#621c23;"></polygon><polygon stroke-linejoin="round" stroke-miterlimit="1" stroke-width="1" points="-153.147705078125,192.71591186523438 -96.0205078125,342.31349182128906 126.66864013671875,198.19158935546875" style="fill:#4d1123;stroke:#4d1123;"></polygon><polygon stroke-linejoin="round" stroke-miterlimit="1" stroke-width="1" points="90.90106201171875,64.80130004882812 -153.147705078125,192.71591186523438 126.66864013671875,198.19158935546875" style="fill:#541523;stroke:#541523;"></polygon><polygon stroke-linejoin="round" stroke-miterlimit="1" stroke-width="1" points="47.19012451171875,54.54632568359375 -153.147705078125,192.71591186523438 90.90106201171875,64.80130004882812" style="fill:#611c23;stroke:#611c23;"></polygon><polygon stroke-linejoin="round" stroke-miterlimit="1" stroke-width="1" points="218.084228515625,-113.538330078125 47.19012451171875,54.54632568359375 90.90106201171875,64.80130004882812" style="fill:#651e23;stroke:#651e23;"></polygon><polygon stroke-linejoin="round" stroke-miterlimit="1" stroke-width="1" points="47.19342041015625,-112.43829345703125 47.19012451171875,54.54632568359375 218.084228515625,-113.538330078125" style="fill:#3b0823;stroke:#3b0823;"></polygon><polygon stroke-linejoin="round" stroke-miterlimit="1" stroke-width="1" points="65.3466796875,962.2215270996094 -293.7926025390625,1114.2923583984375 -62.523681640625,1110.5698852539062" style="fill:#521423;stroke:#521423;"></polygon><polygon stroke-linejoin="round" stroke-miterlimit="1" stroke-width="1" points="-161.544189453125,958.5028991699219 -293.7926025390625,1114.2923583984375 65.3466796875,962.2215270996094" style="fill:#531423;stroke:#531423;"></polygon><polygon stroke-linejoin="round" stroke-miterlimit="1" stroke-width="1" points="-9.72430419921875,788.4392395019531 -161.544189453125,958.5028991699219 65.3466796875,962.2215270996094" style="fill:#561623;stroke:#561623;"></polygon><polygon stroke-linejoin="round" stroke-miterlimit="1" stroke-width="1" points="-127.2340087890625,792.0163879394531 -161.544189453125,958.5028991699219 -9.72430419921875,788.4392395019531" style="fill:#4b1023;stroke:#4b1023;"></polygon><polygon stroke-linejoin="round" stroke-miterlimit="1" stroke-width="1" points="-55.746337890625,658.4159698486328 -127.2340087890625,792.0163879394531 -9.72430419921875,788.4392395019531" style="fill:#430c23;stroke:#430c23;"></polygon><polygon stroke-linejoin="round" stroke-miterlimit="1" stroke-width="1" points="-319.56884765625,637.5845794677734 -127.2340087890625,792.0163879394531 -55.746337890625,658.4159698486328" style="fill:#410b23;stroke:#410b23;"></polygon><polygon stroke-linejoin="round" stroke-miterlimit="1" stroke-width="1" points="-166.6851806640625,511.5756311416626 -319.56884765625,637.5845794677734 -55.746337890625,658.4159698486328" style="fill:#4d1123;stroke:#4d1123;"></polygon><polygon stroke-linejoin="round" stroke-miterlimit="1" stroke-width="1" points="-289.0767822265625,508.2059917449951 -319.56884765625,637.5845794677734 -166.6851806640625,511.5756311416626" style="fill:#521423;stroke:#521423;"></polygon><polygon stroke-linejoin="round" stroke-miterlimit="1" stroke-width="1" points="-96.0205078125,342.31349182128906 -289.0767822265625,508.2059917449951 -166.6851806640625,511.5756311416626" style="fill:#501323;stroke:#501323;"></polygon><polygon stroke-linejoin="round" stroke-miterlimit="1" stroke-width="1" points="-240.0382080078125,359.0244140625 -289.0767822265625,508.2059917449951 -96.0205078125,342.31349182128906" style="fill:#4c1123;stroke:#4c1123;"></polygon><polygon stroke-linejoin="round" stroke-miterlimit="1" stroke-width="1" points="-153.147705078125,192.71591186523438 -240.0382080078125,359.0244140625 -96.0205078125,342.31349182128906" style="fill:#490f23;stroke:#490f23;"></polygon><polygon stroke-linejoin="round" stroke-miterlimit="1" stroke-width="1" points="-110.7138671875,200.99002075195312 -240.0382080078125,359.0244140625 -153.147705078125,192.71591186523438" style="fill:#2e0023;stroke:#2e0023;"></polygon><polygon stroke-linejoin="round" stroke-miterlimit="1" stroke-width="1" points="47.19012451171875,54.54632568359375 -110.7138671875,200.99002075195312 -153.147705078125,192.71591186523438" style="fill:#2e0023;stroke:#2e0023;"></polygon><polygon stroke-linejoin="round" stroke-miterlimit="1" stroke-width="1" points="-314.88916015625,64.26959228515625 -110.7138671875,200.99002075195312 47.19012451171875,54.54632568359375" style="fill:#4e1123;stroke:#4e1123;"></polygon><polygon stroke-linejoin="round" stroke-miterlimit="1" stroke-width="1" points="47.19342041015625,-112.43829345703125 -314.88916015625,64.26959228515625 47.19012451171875,54.54632568359375" style="fill:#440c23;stroke:#440c23;"></polygon><polygon stroke-linejoin="round" stroke-miterlimit="1" stroke-width="1" points="-256.03564453125,-114.34173583984375 -314.88916015625,64.26959228515625 47.19342041015625,-112.43829345703125" style="fill:#470e23;stroke:#470e23;"></polygon></svg>