<?xml version="1.0" encoding="UTF-8" standalone="no"?>
<!DOCTYPE svg PUBLIC "-//W3C//DTD SVG 1.1//EN"
 "http://www.w3.org/Graphics/SVG/1.1/DTD/svg11.dtd">
<!-- Generated by graphviz version 2.38.0 (20140413.2041)
 -->
<!-- Title: controllers_diagram Pages: 1 -->
<svg width="678pt" height="661pt"
 viewBox="0.00 0.00 677.92 661.00" xmlns="http://www.w3.org/2000/svg" xmlns:xlink="http://www.w3.org/1999/xlink">
<g id="graph0" class="graph" transform="scale(1 1) rotate(0) translate(255.707 423.5)">
<title>controllers_diagram</title>
<polygon fill="white" stroke="none" points="-255.707,237.5 -255.707,-423.5 422.217,-423.5 422.217,237.5 -255.707,237.5"/>
<!-- _diagram_info -->
<g id="node1" class="node"><title>_diagram_info</title>
<text text-anchor="start" x="8.31226" y="156.9" font-family="Times,serif" font-size="13.00">Controllers diagram</text>
<text text-anchor="start" x="8.31226" y="169.9" font-family="Times,serif" font-size="13.00">Date: Jun 26 2015 &#45; 08:47</text>
<text text-anchor="start" x="8.31226" y="182.9" font-family="Times,serif" font-size="13.00">Migration version: 20150625140817</text>
<text text-anchor="start" x="8.31226" y="195.9" font-family="Times,serif" font-size="13.00">Generated by RailRoady 1.3.0</text>
<text text-anchor="start" x="8.31226" y="208.9" font-family="Times,serif" font-size="13.00">http://railroady.prestonlee.com</text>
</g>
<!-- Admin::CategoriesController -->
<g id="node2" class="node"><title>Admin::CategoriesController</title>
<path fill="none" stroke="black" d="M119.958,107C119.958,107 276.042,107 276.042,107 282.042,107 288.042,101 288.042,95 288.042,95 288.042,-83 288.042,-83 288.042,-89 282.042,-95 276.042,-95 276.042,-95 119.958,-95 119.958,-95 113.958,-95 107.958,-89 107.958,-83 107.958,-83 107.958,95 107.958,95 107.958,101 113.958,107 119.958,107"/>
<text text-anchor="middle" x="198" y="-79.8" font-family="Times,serif" font-size="14.00">Admin::CategoriesController</text>
<polyline fill="none" stroke="black" points="107.958,-73 288.042,-73 "/>
<text text-anchor="start" x="115.958" y="-57.8" font-family="Times,serif" font-size="14.00">create</text>
<text text-anchor="start" x="115.958" y="-43.8" font-family="Times,serif" font-size="14.00">destroy</text>
<text text-anchor="start" x="115.958" y="-29.8" font-family="Times,serif" font-size="14.00">edit</text>
<text text-anchor="start" x="115.958" y="-15.8" font-family="Times,serif" font-size="14.00">index</text>
<text text-anchor="start" x="115.958" y="-1.8" font-family="Times,serif" font-size="14.00">new</text>
<text text-anchor="start" x="115.958" y="12.2" font-family="Times,serif" font-size="14.00">show</text>
<text text-anchor="start" x="115.958" y="26.2" font-family="Times,serif" font-size="14.00">update</text>
<polyline fill="none" stroke="black" points="107.958,33 288.042,33 "/>
<polyline fill="none" stroke="black" points="107.958,57 288.042,57 "/>
<text text-anchor="start" x="115.958" y="72.2" font-family="Times,serif" font-size="14.00">_layout</text>
<text text-anchor="start" x="115.958" y="86.2" font-family="Times,serif" font-size="14.00">admin_category_params</text>
<text text-anchor="start" x="115.958" y="100.2" font-family="Times,serif" font-size="14.00">set_admin_category</text>
</g>
<!-- Admin::ContactsController -->
<g id="node3" class="node"><title>Admin::ContactsController</title>
<path fill="none" stroke="black" d="M-77.6035,107C-77.6035,107 67.6035,107 67.6035,107 73.6035,107 79.6035,101 79.6035,95 79.6035,95 79.6035,-83 79.6035,-83 79.6035,-89 73.6035,-95 67.6035,-95 67.6035,-95 -77.6035,-95 -77.6035,-95 -83.6035,-95 -89.6035,-89 -89.6035,-83 -89.6035,-83 -89.6035,95 -89.6035,95 -89.6035,101 -83.6035,107 -77.6035,107"/>
<text text-anchor="middle" x="-5" y="-79.8" font-family="Times,serif" font-size="14.00">Admin::ContactsController</text>
<polyline fill="none" stroke="black" points="-89.6035,-73 79.6035,-73 "/>
<text text-anchor="start" x="-81.6035" y="-57.8" font-family="Times,serif" font-size="14.00">create</text>
<text text-anchor="start" x="-81.6035" y="-43.8" font-family="Times,serif" font-size="14.00">destroy</text>
<text text-anchor="start" x="-81.6035" y="-29.8" font-family="Times,serif" font-size="14.00">edit</text>
<text text-anchor="start" x="-81.6035" y="-15.8" font-family="Times,serif" font-size="14.00">index</text>
<text text-anchor="start" x="-81.6035" y="-1.8" font-family="Times,serif" font-size="14.00">new</text>
<text text-anchor="start" x="-81.6035" y="12.2" font-family="Times,serif" font-size="14.00">show</text>
<text text-anchor="start" x="-81.6035" y="26.2" font-family="Times,serif" font-size="14.00">update</text>
<polyline fill="none" stroke="black" points="-89.6035,33 79.6035,33 "/>
<polyline fill="none" stroke="black" points="-89.6035,57 79.6035,57 "/>
<text text-anchor="start" x="-81.6035" y="72.2" font-family="Times,serif" font-size="14.00">_layout</text>
<text text-anchor="start" x="-81.6035" y="86.2" font-family="Times,serif" font-size="14.00">admin_contact_params</text>
<text text-anchor="start" x="-81.6035" y="100.2" font-family="Times,serif" font-size="14.00">set_admin_contact</text>
</g>
<!-- Admin::PagesController -->
<g id="node4" class="node"><title>Admin::PagesController</title>
<path fill="none" stroke="black" d="M137.562,-127C137.562,-127 266.438,-127 266.438,-127 272.438,-127 278.438,-133 278.438,-139 278.438,-139 278.438,-331 278.438,-331 278.438,-337 272.438,-343 266.438,-343 266.438,-343 137.562,-343 137.562,-343 131.562,-343 125.562,-337 125.562,-331 125.562,-331 125.562,-139 125.562,-139 125.562,-133 131.562,-127 137.562,-127"/>
<text text-anchor="middle" x="202" y="-327.8" font-family="Times,serif" font-size="14.00">Admin::PagesController</text>
<polyline fill="none" stroke="black" points="125.562,-321 278.438,-321 "/>
<text text-anchor="start" x="133.562" y="-305.8" font-family="Times,serif" font-size="14.00">create</text>
<text text-anchor="start" x="133.562" y="-291.8" font-family="Times,serif" font-size="14.00">destroy</text>
<text text-anchor="start" x="133.562" y="-277.8" font-family="Times,serif" font-size="14.00">edit</text>
<text text-anchor="start" x="133.562" y="-263.8" font-family="Times,serif" font-size="14.00">index</text>
<text text-anchor="start" x="133.562" y="-249.8" font-family="Times,serif" font-size="14.00">new</text>
<text text-anchor="start" x="133.562" y="-235.8" font-family="Times,serif" font-size="14.00">show</text>
<text text-anchor="start" x="133.562" y="-221.8" font-family="Times,serif" font-size="14.00">update</text>
<text text-anchor="start" x="133.562" y="-207.8" font-family="Times,serif" font-size="14.00">welcome</text>
<polyline fill="none" stroke="black" points="125.562,-201 278.438,-201 "/>
<polyline fill="none" stroke="black" points="125.562,-177 278.438,-177 "/>
<text text-anchor="start" x="133.562" y="-161.8" font-family="Times,serif" font-size="14.00">_layout</text>
<text text-anchor="start" x="133.562" y="-147.8" font-family="Times,serif" font-size="14.00">admin_page_params</text>
<text text-anchor="start" x="133.562" y="-133.8" font-family="Times,serif" font-size="14.00">set_admin_page</text>
</g>
<!-- Admin::PostsController -->
<g id="node5" class="node"><title>Admin::PostsController</title>
<path fill="none" stroke="black" d="M-41.8931,-127C-41.8931,-127 83.8931,-127 83.8931,-127 89.8931,-127 95.8931,-133 95.8931,-139 95.8931,-139 95.8931,-317 95.8931,-317 95.8931,-323 89.8931,-329 83.8931,-329 83.8931,-329 -41.8931,-329 -41.8931,-329 -47.8931,-329 -53.8931,-323 -53.8931,-317 -53.8931,-317 -53.8931,-139 -53.8931,-139 -53.8931,-133 -47.8931,-127 -41.8931,-127"/>
<text text-anchor="middle" x="21" y="-313.8" font-family="Times,serif" font-size="14.00">Admin::PostsController</text>
<polyline fill="none" stroke="black" points="-53.8931,-307 95.8931,-307 "/>
<text text-anchor="start" x="-45.8931" y="-291.8" font-family="Times,serif" font-size="14.00">create</text>
<text text-anchor="start" x="-45.8931" y="-277.8" font-family="Times,serif" font-size="14.00">destroy</text>
<text text-anchor="start" x="-45.8931" y="-263.8" font-family="Times,serif" font-size="14.00">edit</text>
<text text-anchor="start" x="-45.8931" y="-249.8" font-family="Times,serif" font-size="14.00">index</text>
<text text-anchor="start" x="-45.8931" y="-235.8" font-family="Times,serif" font-size="14.00">new</text>
<text text-anchor="start" x="-45.8931" y="-221.8" font-family="Times,serif" font-size="14.00">show</text>
<text text-anchor="start" x="-45.8931" y="-207.8" font-family="Times,serif" font-size="14.00">update</text>
<polyline fill="none" stroke="black" points="-53.8931,-201 95.8931,-201 "/>
<polyline fill="none" stroke="black" points="-53.8931,-177 95.8931,-177 "/>
<text text-anchor="start" x="-45.8931" y="-161.8" font-family="Times,serif" font-size="14.00">_layout</text>
<text text-anchor="start" x="-45.8931" y="-147.8" font-family="Times,serif" font-size="14.00">admin_post_params</text>
<text text-anchor="start" x="-45.8931" y="-133.8" font-family="Times,serif" font-size="14.00">set_admin_post</text>
</g>
<!-- AdminController -->
<g id="node6" class="node"><title>AdminController</title>
<path fill="none" stroke="black" d="M317.783,-289C317.783,-289 406.217,-289 406.217,-289 412.217,-289 418.217,-295 418.217,-301 418.217,-301 418.217,-369 418.217,-369 418.217,-375 412.217,-381 406.217,-381 406.217,-381 317.783,-381 317.783,-381 311.783,-381 305.783,-375 305.783,-369 305.783,-369 305.783,-301 305.783,-301 305.783,-295 311.783,-289 317.783,-289"/>
<text text-anchor="middle" x="362" y="-365.8" font-family="Times,serif" font-size="14.00">AdminController</text>
<polyline fill="none" stroke="black" points="305.783,-359 418.217,-359 "/>
<polyline fill="none" stroke="black" points="305.783,-335 418.217,-335 "/>
<polyline fill="none" stroke="black" points="305.783,-311 418.217,-311 "/>
<text text-anchor="start" x="313.783" y="-295.8" font-family="Times,serif" font-size="14.00">_layout</text>
</g>
<!-- ApplicationController -->
<g id="node7" class="node"><title>ApplicationController</title>
<path fill="none" stroke="black" d="M246.179,233C246.179,233 361.821,233 361.821,233 367.821,233 373.821,227 373.821,221 373.821,221 373.821,153 373.821,153 373.821,147 367.821,141 361.821,141 361.821,141 246.179,141 246.179,141 240.179,141 234.179,147 234.179,153 234.179,153 234.179,221 234.179,221 234.179,227 240.179,233 246.179,233"/>
<text text-anchor="middle" x="304" y="156.2" font-family="Times,serif" font-size="14.00">ApplicationController</text>
<polyline fill="none" stroke="black" points="234.179,163 373.821,163 "/>
<polyline fill="none" stroke="black" points="234.179,187 373.821,187 "/>
<polyline fill="none" stroke="black" points="234.179,211 373.821,211 "/>
<text text-anchor="start" x="242.179" y="226.2" font-family="Times,serif" font-size="14.00">_layout</text>
</g>
<!-- CategoriesController -->
<g id="node8" class="node"><title>CategoriesController</title>
<path fill="none" stroke="black" d="M-239.707,-1C-239.707,-1 -130.293,-1 -130.293,-1 -124.293,-1 -118.293,-7 -118.293,-13 -118.293,-13 -118.293,-177 -118.293,-177 -118.293,-183 -124.293,-189 -130.293,-189 -130.293,-189 -239.707,-189 -239.707,-189 -245.707,-189 -251.707,-183 -251.707,-177 -251.707,-177 -251.707,-13 -251.707,-13 -251.707,-7 -245.707,-1 -239.707,-1"/>
<text text-anchor="middle" x="-185" y="-173.8" font-family="Times,serif" font-size="14.00">CategoriesController</text>
<polyline fill="none" stroke="black" points="-251.707,-167 -118.293,-167 "/>
<text text-anchor="start" x="-243.707" y="-151.8" font-family="Times,serif" font-size="14.00">create</text>
<text text-anchor="start" x="-243.707" y="-137.8" font-family="Times,serif" font-size="14.00">destroy</text>
<text text-anchor="start" x="-243.707" y="-123.8" font-family="Times,serif" font-size="14.00">edit</text>
<text text-anchor="start" x="-243.707" y="-109.8" font-family="Times,serif" font-size="14.00">index</text>
<text text-anchor="start" x="-243.707" y="-95.8" font-family="Times,serif" font-size="14.00">new</text>
<text text-anchor="start" x="-243.707" y="-81.8" font-family="Times,serif" font-size="14.00">show</text>
<text text-anchor="start" x="-243.707" y="-67.8" font-family="Times,serif" font-size="14.00">update</text>
<polyline fill="none" stroke="black" points="-251.707,-61 -118.293,-61 "/>
<polyline fill="none" stroke="black" points="-251.707,-37 -118.293,-37 "/>
<text text-anchor="start" x="-243.707" y="-21.8" font-family="Times,serif" font-size="14.00">_layout</text>
<text text-anchor="start" x="-243.707" y="-7.8" font-family="Times,serif" font-size="14.00">category_params</text>
</g>
<!-- ContactsController -->
<g id="node9" class="node"><title>ContactsController</title>
<path fill="none" stroke="black" d="M-204.269,-217C-204.269,-217 -105.731,-217 -105.731,-217 -99.731,-217 -93.731,-223 -93.731,-229 -93.731,-229 -93.731,-407 -93.731,-407 -93.731,-413 -99.731,-419 -105.731,-419 -105.731,-419 -204.269,-419 -204.269,-419 -210.269,-419 -216.269,-413 -216.269,-407 -216.269,-407 -216.269,-229 -216.269,-229 -216.269,-223 -210.269,-217 -204.269,-217"/>
<text text-anchor="middle" x="-155" y="-403.8" font-family="Times,serif" font-size="14.00">ContactsController</text>
<polyline fill="none" stroke="black" points="-216.269,-397 -93.731,-397 "/>
<text text-anchor="start" x="-208.269" y="-381.8" font-family="Times,serif" font-size="14.00">create</text>
<text text-anchor="start" x="-208.269" y="-367.8" font-family="Times,serif" font-size="14.00">destroy</text>
<text text-anchor="start" x="-208.269" y="-353.8" font-family="Times,serif" font-size="14.00">edit</text>
<text text-anchor="start" x="-208.269" y="-339.8" font-family="Times,serif" font-size="14.00">index</text>
<text text-anchor="start" x="-208.269" y="-325.8" font-family="Times,serif" font-size="14.00">new</text>
<text text-anchor="start" x="-208.269" y="-311.8" font-family="Times,serif" font-size="14.00">show</text>
<text text-anchor="start" x="-208.269" y="-297.8" font-family="Times,serif" font-size="14.00">update</text>
<polyline fill="none" stroke="black" points="-216.269,-291 -93.731,-291 "/>
<polyline fill="none" stroke="black" points="-216.269,-267 -93.731,-267 "/>
<text text-anchor="start" x="-208.269" y="-251.8" font-family="Times,serif" font-size="14.00">_layout</text>
<text text-anchor="start" x="-208.269" y="-237.8" font-family="Times,serif" font-size="14.00">contact_params</text>
<text text-anchor="start" x="-208.269" y="-223.8" font-family="Times,serif" font-size="14.00">set_contact</text>
</g>
<!-- PagesController -->
<g id="node10" class="node"><title>PagesController</title>
<path fill="none" stroke="black" d="M317.896,-127C317.896,-127 400.104,-127 400.104,-127 406.104,-127 412.104,-133 412.104,-139 412.104,-139 412.104,-233 412.104,-233 412.104,-239 406.104,-245 400.104,-245 400.104,-245 317.896,-245 317.896,-245 311.896,-245 305.896,-239 305.896,-233 305.896,-233 305.896,-139 305.896,-139 305.896,-133 311.896,-127 317.896,-127"/>
<text text-anchor="middle" x="359" y="-229.8" font-family="Times,serif" font-size="14.00">PagesController</text>
<polyline fill="none" stroke="black" points="305.896,-223 412.104,-223 "/>
<text text-anchor="start" x="313.896" y="-207.8" font-family="Times,serif" font-size="14.00">show</text>
<text text-anchor="start" x="313.896" y="-193.8" font-family="Times,serif" font-size="14.00">welcome</text>
<polyline fill="none" stroke="black" points="305.896,-187 412.104,-187 "/>
<polyline fill="none" stroke="black" points="305.896,-163 412.104,-163 "/>
<text text-anchor="start" x="313.896" y="-147.8" font-family="Times,serif" font-size="14.00">_layout</text>
<text text-anchor="start" x="313.896" y="-133.8" font-family="Times,serif" font-size="14.00">set_page</text>
</g>
<!-- PostsController -->
<g id="node11" class="node"><title>PostsController</title>
<path fill="none" stroke="black" d="M-221.559,215C-221.559,215 -142.441,215 -142.441,215 -136.441,215 -130.441,209 -130.441,203 -130.441,203 -130.441,39 -130.441,39 -130.441,33 -136.441,27 -142.441,27 -142.441,27 -221.559,27 -221.559,27 -227.559,27 -233.559,33 -233.559,39 -233.559,39 -233.559,203 -233.559,203 -233.559,209 -227.559,215 -221.559,215"/>
<text text-anchor="middle" x="-182" y="42.2" font-family="Times,serif" font-size="14.00">PostsController</text>
<polyline fill="none" stroke="black" points="-233.559,49 -130.441,49 "/>
<text text-anchor="start" x="-225.559" y="64.2" font-family="Times,serif" font-size="14.00">create</text>
<text text-anchor="start" x="-225.559" y="78.2" font-family="Times,serif" font-size="14.00">destroy</text>
<text text-anchor="start" x="-225.559" y="92.2" font-family="Times,serif" font-size="14.00">edit</text>
<text text-anchor="start" x="-225.559" y="106.2" font-family="Times,serif" font-size="14.00">index</text>
<text text-anchor="start" x="-225.559" y="120.2" font-family="Times,serif" font-size="14.00">new</text>
<text text-anchor="start" x="-225.559" y="134.2" font-family="Times,serif" font-size="14.00">show</text>
<text text-anchor="start" x="-225.559" y="148.2" font-family="Times,serif" font-size="14.00">update</text>
<polyline fill="none" stroke="black" points="-233.559,155 -130.441,155 "/>
<polyline fill="none" stroke="black" points="-233.559,179 -130.441,179 "/>
<text text-anchor="start" x="-225.559" y="194.2" font-family="Times,serif" font-size="14.00">_layout</text>
<text text-anchor="start" x="-225.559" y="208.2" font-family="Times,serif" font-size="14.00">post_params</text>
</g>
</g>
</svg>
