<?xml version="1.0" encoding="UTF-8" standalone="no"?>
<!DOCTYPE svg PUBLIC "-//W3C//DTD SVG 1.1//EN"
 "http://www.w3.org/Graphics/SVG/1.1/DTD/svg11.dtd">
<!-- Generated by graphviz version 2.38.0 (20140413.2041)
 -->
<!-- Title: models_diagram Pages: 1 -->
<svg width="891pt" height="607pt"
 viewBox="0.00 0.00 890.97 607.00" xmlns="http://www.w3.org/2000/svg" xmlns:xlink="http://www.w3.org/1999/xlink">
<g id="graph0" class="graph" transform="scale(1 1) rotate(0) translate(4 603)">
<title>models_diagram</title>
<polygon fill="white" stroke="none" points="-4,4 -4,-603 886.966,-603 886.966,4 -4,4"/>
<!-- _diagram_info -->
<g id="node1" class="node"><title>_diagram_info</title>
<text text-anchor="start" x="8" y="-514.6" font-family="Times,serif" font-size="13.00">Models diagram</text>
<text text-anchor="start" x="8" y="-501.6" font-family="Times,serif" font-size="13.00">Date: Jun 26 2015 &#45; 08:47</text>
<text text-anchor="start" x="8" y="-488.6" font-family="Times,serif" font-size="13.00">Migration version: 20150625140817</text>
<text text-anchor="start" x="8" y="-475.6" font-family="Times,serif" font-size="13.00">Generated by RailRoady 1.3.0</text>
<text text-anchor="start" x="8" y="-462.6" font-family="Times,serif" font-size="13.00">http://railroady.prestonlee.com</text>
</g>
<!-- Category -->
<g id="node2" class="node"><title>Category</title>
<path fill="none" stroke="black" d="M237.182,-449.5C237.182,-449.5 346.193,-449.5 346.193,-449.5 352.193,-449.5 358.193,-455.5 358.193,-461.5 358.193,-461.5 358.193,-523.5 358.193,-523.5 358.193,-529.5 352.193,-535.5 346.193,-535.5 346.193,-535.5 237.182,-535.5 237.182,-535.5 231.182,-535.5 225.182,-529.5 225.182,-523.5 225.182,-523.5 225.182,-461.5 225.182,-461.5 225.182,-455.5 231.182,-449.5 237.182,-449.5"/>
<text text-anchor="middle" x="291.688" y="-520.3" font-family="Times,serif" font-size="14.00">Category</text>
<polyline fill="none" stroke="black" points="225.182,-513.5 358.193,-513.5 "/>
<text text-anchor="start" x="233.182" y="-498.3" font-family="Times,serif" font-size="14.00">id :integer</text>
<text text-anchor="start" x="233.182" y="-484.3" font-family="Times,serif" font-size="14.00">name :string</text>
<text text-anchor="start" x="233.182" y="-470.3" font-family="Times,serif" font-size="14.00">created_at :datetime</text>
<text text-anchor="start" x="233.182" y="-456.3" font-family="Times,serif" font-size="14.00">updated_at :datetime</text>
</g>
<!-- Post -->
<g id="node6" class="node"><title>Post</title>
<path fill="none" stroke="black" d="M232.12,-193.5C232.12,-193.5 351.255,-193.5 351.255,-193.5 357.255,-193.5 363.255,-199.5 363.255,-205.5 363.255,-205.5 363.255,-337.5 363.255,-337.5 363.255,-343.5 357.255,-349.5 351.255,-349.5 351.255,-349.5 232.12,-349.5 232.12,-349.5 226.12,-349.5 220.12,-343.5 220.12,-337.5 220.12,-337.5 220.12,-205.5 220.12,-205.5 220.12,-199.5 226.12,-193.5 232.12,-193.5"/>
<text text-anchor="middle" x="291.688" y="-334.3" font-family="Times,serif" font-size="14.00">Post</text>
<polyline fill="none" stroke="black" points="220.12,-327.5 363.255,-327.5 "/>
<text text-anchor="start" x="228.12" y="-312.3" font-family="Times,serif" font-size="14.00">id :integer</text>
<text text-anchor="start" x="228.12" y="-298.3" font-family="Times,serif" font-size="14.00">title :string</text>
<text text-anchor="start" x="228.12" y="-284.3" font-family="Times,serif" font-size="14.00">resume :string</text>
<text text-anchor="start" x="228.12" y="-270.3" font-family="Times,serif" font-size="14.00">content :text</text>
<text text-anchor="start" x="228.12" y="-256.3" font-family="Times,serif" font-size="14.00">published_at :datetime</text>
<text text-anchor="start" x="228.12" y="-242.3" font-family="Times,serif" font-size="14.00">status :boolean</text>
<text text-anchor="start" x="228.12" y="-228.3" font-family="Times,serif" font-size="14.00">created_at :datetime</text>
<text text-anchor="start" x="228.12" y="-214.3" font-family="Times,serif" font-size="14.00">updated_at :datetime</text>
<text text-anchor="start" x="228.12" y="-200.3" font-family="Times,serif" font-size="14.00">category_id :integer</text>
</g>
<!-- Category&#45;&gt;Post -->
<g id="edge1" class="edge"><title>Category&#45;&gt;Post</title>
<path fill="none" stroke="#545836" d="M291.688,-441.094C291.688,-416.949 291.688,-387.332 291.688,-359.694"/>
<ellipse fill="none" stroke="#545836" cx="291.688" cy="-445.275" rx="4" ry="4"/>
<polygon fill="#545836" stroke="#545836" points="291.688,-359.615 296.188,-349.615 291.688,-354.615 291.688,-349.615 291.688,-349.615 291.688,-349.615 291.688,-354.615 287.188,-349.615 291.688,-359.615 291.688,-359.615"/>
</g>
<!-- Comment -->
<g id="node3" class="node"><title>Comment</title>
<path fill="none" stroke="black" d="M237.182,-0.5C237.182,-0.5 346.193,-0.5 346.193,-0.5 352.193,-0.5 358.193,-6.5 358.193,-12.5 358.193,-12.5 358.193,-144.5 358.193,-144.5 358.193,-150.5 352.193,-156.5 346.193,-156.5 346.193,-156.5 237.182,-156.5 237.182,-156.5 231.182,-156.5 225.182,-150.5 225.182,-144.5 225.182,-144.5 225.182,-12.5 225.182,-12.5 225.182,-6.5 231.182,-0.5 237.182,-0.5"/>
<text text-anchor="middle" x="291.688" y="-141.3" font-family="Times,serif" font-size="14.00">Comment</text>
<polyline fill="none" stroke="black" points="225.182,-134.5 358.193,-134.5 "/>
<text text-anchor="start" x="233.182" y="-119.3" font-family="Times,serif" font-size="14.00">id :integer</text>
<text text-anchor="start" x="233.182" y="-105.3" font-family="Times,serif" font-size="14.00">name :string</text>
<text text-anchor="start" x="233.182" y="-91.3" font-family="Times,serif" font-size="14.00">email :string</text>
<text text-anchor="start" x="233.182" y="-77.3" font-family="Times,serif" font-size="14.00">content :text</text>
<text text-anchor="start" x="233.182" y="-63.3" font-family="Times,serif" font-size="14.00">ip :string</text>
<text text-anchor="start" x="233.182" y="-49.3" font-family="Times,serif" font-size="14.00">status :boolean</text>
<text text-anchor="start" x="233.182" y="-35.3" font-family="Times,serif" font-size="14.00">created_at :datetime</text>
<text text-anchor="start" x="233.182" y="-21.3" font-family="Times,serif" font-size="14.00">updated_at :datetime</text>
<text text-anchor="start" x="233.182" y="-7.3" font-family="Times,serif" font-size="14.00">post_id :integer</text>
</g>
<!-- Contact -->
<g id="node4" class="node"><title>Contact</title>
<path fill="none" stroke="black" d="M388.182,-407.5C388.182,-407.5 497.193,-407.5 497.193,-407.5 503.193,-407.5 509.193,-413.5 509.193,-419.5 509.193,-419.5 509.193,-565.5 509.193,-565.5 509.193,-571.5 503.193,-577.5 497.193,-577.5 497.193,-577.5 388.182,-577.5 388.182,-577.5 382.182,-577.5 376.182,-571.5 376.182,-565.5 376.182,-565.5 376.182,-419.5 376.182,-419.5 376.182,-413.5 382.182,-407.5 388.182,-407.5"/>
<text text-anchor="middle" x="442.688" y="-562.3" font-family="Times,serif" font-size="14.00">Contact</text>
<polyline fill="none" stroke="black" points="376.182,-555.5 509.193,-555.5 "/>
<text text-anchor="start" x="384.182" y="-540.3" font-family="Times,serif" font-size="14.00">id :integer</text>
<text text-anchor="start" x="384.182" y="-526.3" font-family="Times,serif" font-size="14.00">name :string</text>
<text text-anchor="start" x="384.182" y="-512.3" font-family="Times,serif" font-size="14.00">email :string</text>
<text text-anchor="start" x="384.182" y="-498.3" font-family="Times,serif" font-size="14.00">subject :string</text>
<text text-anchor="start" x="384.182" y="-484.3" font-family="Times,serif" font-size="14.00">phone :string</text>
<text text-anchor="start" x="384.182" y="-470.3" font-family="Times,serif" font-size="14.00">mobile :string</text>
<text text-anchor="start" x="384.182" y="-456.3" font-family="Times,serif" font-size="14.00">message :text</text>
<text text-anchor="start" x="384.182" y="-442.3" font-family="Times,serif" font-size="14.00">status :integer</text>
<text text-anchor="start" x="384.182" y="-428.3" font-family="Times,serif" font-size="14.00">created_at :datetime</text>
<text text-anchor="start" x="384.182" y="-414.3" font-family="Times,serif" font-size="14.00">updated_at :datetime</text>
</g>
<!-- Page -->
<g id="node5" class="node"><title>Page</title>
<path fill="none" stroke="black" d="M539.182,-435.5C539.182,-435.5 648.193,-435.5 648.193,-435.5 654.193,-435.5 660.193,-441.5 660.193,-447.5 660.193,-447.5 660.193,-537.5 660.193,-537.5 660.193,-543.5 654.193,-549.5 648.193,-549.5 648.193,-549.5 539.182,-549.5 539.182,-549.5 533.182,-549.5 527.182,-543.5 527.182,-537.5 527.182,-537.5 527.182,-447.5 527.182,-447.5 527.182,-441.5 533.182,-435.5 539.182,-435.5"/>
<text text-anchor="middle" x="593.688" y="-534.3" font-family="Times,serif" font-size="14.00">Page</text>
<polyline fill="none" stroke="black" points="527.182,-527.5 660.193,-527.5 "/>
<text text-anchor="start" x="535.182" y="-512.3" font-family="Times,serif" font-size="14.00">id :integer</text>
<text text-anchor="start" x="535.182" y="-498.3" font-family="Times,serif" font-size="14.00">title :string</text>
<text text-anchor="start" x="535.182" y="-484.3" font-family="Times,serif" font-size="14.00">content :text</text>
<text text-anchor="start" x="535.182" y="-470.3" font-family="Times,serif" font-size="14.00">slug :string</text>
<text text-anchor="start" x="535.182" y="-456.3" font-family="Times,serif" font-size="14.00">created_at :datetime</text>
<text text-anchor="start" x="535.182" y="-442.3" font-family="Times,serif" font-size="14.00">updated_at :datetime</text>
</g>
<!-- Post&#45;&gt;Comment -->
<g id="edge2" class="edge"><title>Post&#45;&gt;Comment</title>
<path fill="none" stroke="#158920" d="M291.688,-185.077C291.688,-179.003 291.688,-172.875 291.688,-166.792"/>
<ellipse fill="none" stroke="#158920" cx="291.688" cy="-189.364" rx="4" ry="4"/>
<polygon fill="#158920" stroke="#158920" points="291.688,-166.614 296.188,-156.614 291.688,-161.614 291.688,-156.614 291.688,-156.614 291.688,-156.614 291.688,-161.614 287.188,-156.614 291.688,-166.614 291.688,-166.614"/>
</g>
<!-- User -->
<g id="node7" class="node"><title>User</title>
<path fill="none" stroke="black" d="M690.41,-386.5C690.41,-386.5 870.966,-386.5 870.966,-386.5 876.966,-386.5 882.966,-392.5 882.966,-398.5 882.966,-398.5 882.966,-586.5 882.966,-586.5 882.966,-592.5 876.966,-598.5 870.966,-598.5 870.966,-598.5 690.41,-598.5 690.41,-598.5 684.41,-598.5 678.41,-592.5 678.41,-586.5 678.41,-586.5 678.41,-398.5 678.41,-398.5 678.41,-392.5 684.41,-386.5 690.41,-386.5"/>
<text text-anchor="middle" x="780.688" y="-583.3" font-family="Times,serif" font-size="14.00">User</text>
<polyline fill="none" stroke="black" points="678.41,-576.5 882.966,-576.5 "/>
<text text-anchor="start" x="686.41" y="-561.3" font-family="Times,serif" font-size="14.00">id :integer</text>
<text text-anchor="start" x="686.41" y="-547.3" font-family="Times,serif" font-size="14.00">email :string</text>
<text text-anchor="start" x="686.41" y="-533.3" font-family="Times,serif" font-size="14.00">encrypted_password :string</text>
<text text-anchor="start" x="686.41" y="-519.3" font-family="Times,serif" font-size="14.00">reset_password_token :string</text>
<text text-anchor="start" x="686.41" y="-505.3" font-family="Times,serif" font-size="14.00">reset_password_sent_at :datetime</text>
<text text-anchor="start" x="686.41" y="-491.3" font-family="Times,serif" font-size="14.00">remember_created_at :datetime</text>
<text text-anchor="start" x="686.41" y="-477.3" font-family="Times,serif" font-size="14.00">sign_in_count :integer</text>
<text text-anchor="start" x="686.41" y="-463.3" font-family="Times,serif" font-size="14.00">current_sign_in_at :datetime</text>
<text text-anchor="start" x="686.41" y="-449.3" font-family="Times,serif" font-size="14.00">last_sign_in_at :datetime</text>
<text text-anchor="start" x="686.41" y="-435.3" font-family="Times,serif" font-size="14.00">current_sign_in_ip :inet</text>
<text text-anchor="start" x="686.41" y="-421.3" font-family="Times,serif" font-size="14.00">last_sign_in_ip :inet</text>
<text text-anchor="start" x="686.41" y="-407.3" font-family="Times,serif" font-size="14.00">created_at :datetime</text>
<text text-anchor="start" x="686.41" y="-393.3" font-family="Times,serif" font-size="14.00">updated_at :datetime</text>
</g>
</g>
</svg>
