<?xml version="1.0" encoding="UTF-8" standalone="no"?>
<!DOCTYPE svg PUBLIC "-//W3C//DTD SVG 1.1//EN"
 "http://www.w3.org/Graphics/SVG/1.1/DTD/svg11.dtd">
<!-- Generated by graphviz version 2.38.0 (20140413.2041)
 -->
<!-- Title: models_diagram Pages: 1 -->
<svg width="556pt" height="225pt"
 viewBox="0.00 0.00 555.69 225.00" xmlns="http://www.w3.org/2000/svg" xmlns:xlink="http://www.w3.org/1999/xlink">
<g id="graph0" class="graph" transform="scale(1 1) rotate(0) translate(4 221)">
<title>models_diagram</title>
<polygon fill="white" stroke="none" points="-4,4 -4,-221 551.688,-221 551.688,4 -4,4"/>
<!-- _diagram_info -->
<g id="node1" class="node"><title>_diagram_info</title>
<text text-anchor="start" x="8" y="-202.6" font-family="Times,serif" font-size="13.00">Models diagram</text>
<text text-anchor="start" x="8" y="-189.6" font-family="Times,serif" font-size="13.00">Date: Jun 26 2015 &#45; 08:47</text>
<text text-anchor="start" x="8" y="-176.6" font-family="Times,serif" font-size="13.00">Migration version: 20150625140817</text>
<text text-anchor="start" x="8" y="-163.6" font-family="Times,serif" font-size="13.00">Generated by RailRoady 1.3.0</text>
<text text-anchor="start" x="8" y="-150.6" font-family="Times,serif" font-size="13.00">http://railroady.prestonlee.com</text>
</g>
<!-- Category -->
<g id="node2" class="node"><title>Category</title>
<ellipse fill="none" stroke="black" cx="267.688" cy="-180.5" rx="42.5456" ry="18"/>
<text text-anchor="middle" x="267.688" y="-176.3" font-family="Times,serif" font-size="14.00">Category</text>
</g>
<!-- Post -->
<g id="node6" class="node"><title>Post</title>
<ellipse fill="none" stroke="black" cx="267.688" cy="-90" rx="27" ry="18"/>
<text text-anchor="middle" x="267.688" y="-85.8" font-family="Times,serif" font-size="14.00">Post</text>
</g>
<!-- Category&#45;&gt;Post -->
<g id="edge1" class="edge"><title>Category&#45;&gt;Post</title>
<path fill="none" stroke="#84397e" d="M267.688,-154.189C267.688,-142.971 267.688,-129.752 267.688,-118.311"/>
<ellipse fill="none" stroke="#84397e" cx="267.688" cy="-158.436" rx="4" ry="4"/>
<polygon fill="#84397e" stroke="#84397e" points="267.688,-118.011 272.188,-108.011 267.688,-113.011 267.688,-108.011 267.688,-108.011 267.688,-108.011 267.688,-113.011 263.188,-108.011 267.688,-118.011 267.688,-118.011"/>
</g>
<!-- Comment -->
<g id="node3" class="node"><title>Comment</title>
<ellipse fill="none" stroke="black" cx="267.688" cy="-18" rx="44.9768" ry="18"/>
<text text-anchor="middle" x="267.688" y="-13.8" font-family="Times,serif" font-size="14.00">Comment</text>
</g>
<!-- Contact -->
<g id="node4" class="node"><title>Contact</title>
<ellipse fill="none" stroke="black" cx="365.688" cy="-180.5" rx="37.7266" ry="18"/>
<text text-anchor="middle" x="365.688" y="-176.3" font-family="Times,serif" font-size="14.00">Contact</text>
</g>
<!-- Page -->
<g id="node5" class="node"><title>Page</title>
<ellipse fill="none" stroke="black" cx="448.688" cy="-180.5" rx="27.0958" ry="18"/>
<text text-anchor="middle" x="448.688" y="-176.3" font-family="Times,serif" font-size="14.00">Page</text>
</g>
<!-- Post&#45;&gt;Comment -->
<g id="edge2" class="edge"><title>Post&#45;&gt;Comment</title>
<path fill="none" stroke="#082686" d="M267.688,-63.6398C267.688,-58.0629 267.688,-52.1319 267.688,-46.4761"/>
<ellipse fill="none" stroke="#082686" cx="267.688" cy="-67.6966" rx="4" ry="4"/>
<polygon fill="#082686" stroke="#082686" points="267.688,-46.1043 272.188,-36.1043 267.688,-41.1043 267.688,-36.1043 267.688,-36.1043 267.688,-36.1043 267.688,-41.1043 263.188,-36.1044 267.688,-46.1043 267.688,-46.1043"/>
</g>
<!-- User -->
<g id="node7" class="node"><title>User</title>
<ellipse fill="none" stroke="black" cx="520.688" cy="-180.5" rx="27" ry="18"/>
<text text-anchor="middle" x="520.688" y="-176.3" font-family="Times,serif" font-size="14.00">User</text>
</g>
</g>
</svg>
